{"asset":{"generator":"3D Builder","version":"2.0"},"scene":0,"scenes":[{"nodes":[0,1,2,3]}],"nodes":[{"mesh":0,"matrix":[-2.9317541702766903E-5,-0.38698494434356689,49.185142517089844,0,67.951240539550781,-2.4744577407836914,-0.02062658965587616,0,2.2063248157501221,60.584712982177734,0.47662755846977234,0,1.0704545974731445,3.0690371990203857,0.053577400743961334,1]},{"mesh":1,"matrix":[1,0,0,0,0,-1.1920928955078125E-7,-0.99999988079071045,0,0,0.99999988079071045,-1.1920928955078125E-7,0,90.403144836425781,0.26440861821174622,-0.21768420934677124,1]},{"mesh":2,"matrix":[28.047872543334961,-0.00412527471780777,-4.59772527392488E-5,0,3.4625671105459332E-5,-3.1206286621454637E-6,-26.630561828613281,0,-0.014153799042105675,39.0821533203125,1.9084063751506619E-6,0,1.081743597984314,-9.2105015937704593E-5,-0.10488499701023102,1]},{"mesh":3,"matrix":[0.0088442312553524971,7.0358660195779521E-6,4.7940691416670234E-8,0,-5.3967994517734041E-8,-1.8531897012508125E-6,-0.0090557336807250977,0,1.0798667062772438E-5,0.010976889170706272,2.9059910957585089E-6,0,0.49467459321022034,2.5434443950653076,0.527443528175354,1]}],"meshes":[{"primitives":[{"attributes":{"POSITION":0,"TEXCOORD_0":2},"mode":4,"indices":4,"material":0},{"attributes":{"POSITION":1,"COLOR_0":3},"mode":4,"indices":5}]},{"primitives":[{"attributes":{"POSITION":6},"mode":4,"indices":7,"material":1}]},{"primitives":[{"attributes":{"POSITION":8},"mode":4,"indices":9,"material":1}]},{"primitives":[{"attributes":{"POSITION":10},"mode":4,"indices":11,"material":2}]}],"materials":[{"pbrMetallicRoughness":{"baseColorFactor":[1,1,1,1],"metallicFactor":1,"roughnessFactor":1,"baseColorTexture":{"index":0,"texCoord":0},"metallicRoughnessTexture":{"index":1,"texCoord":0}},"alphaMode":"OPAQUE"},{"name":"Gold_1_0","pbrMetallicRoughness":{"baseColorFactor":[0.90466135740280151,0.52711522579193115,0.097587361931800842,1],"metallicFactor":0,"roughnessFactor":0.498039186000824},"alphaMode":"OPAQUE"},{"name":"DefaultMaterial","pbrMetallicRoughness":{"baseColorFactor":[0.21223072707653046,0.21223072707653046,0.21223072707653046,1],"metallicFactor":0,"roughnessFactor":0},"alphaMode":"OPAQUE"}],"textures":[{"source":0,"sampler":0},{"source":1,"sampler":0}],"images":[{"uri":"3632205257_2048x2048_6195987693227547908.png"},{"uri":"2849318385_2048x2048_17319628118832143767.png"}],"samplers":[{"magFilter":9729,"wrapS":10497,"wrapT":10497}],"accessors":[{"bufferView":0,"byteOffset":0,"count":6176,"componentType":5126,"type":"VEC3","min":[-0.018374999985098839,-0.0075926100835204124,1.3090400898363441E-5],"max":[0.01139490120112896,0.012378900311887264,0.033278901129961014]},{"bufferView":0,"byteOffset":74112,"count":4543,"componentType":5126,"type":"VEC3","min":[-0.0035734202247112989,-0.0027985500637441874,0.026738401502370834],"max":[0.0040162103250622749,0.0032461201772093773,0.036750301718711853]},{"bufferView":1,"byteOffset":0,"count":6176,"componentType":5126,"type":"VEC2"},{"bufferView":2,"byteOffset":0,"count":4543,"componentType":5121,"type":"VEC4","normalized":true},{"bufferView":3,"byteOffset":0,"count":34143,"componentType":5125,"type":"SCALAR"},{"bufferView":3,"byteOffset":136572,"count":27186,"componentType":5125,"type":"SCALAR"},{"bufferView":4,"byteOffset":0,"count":4685,"componentType":5126,"type":"VEC3","min":[-0.020635498687624931,-0.020636502653360367,-1.4901161193847656E-8],"max":[0.02063550241291523,0.020636491477489471,0.0650869607925415]},{"bufferView":5,"byteOffset":0,"count":28098,"componentType":5125,"type":"SCALAR"},{"bufferView":6,"byteOffset":0,"count":4685,"componentType":5126,"type":"VEC3","min":[-0.020635498687624931,-0.020636502653360367,-1.4901161193847656E-8],"max":[0.02063550241291523,0.020636491477489471,0.0650869607925415]},{"bufferView":7,"byteOffset":0,"count":28098,"componentType":5125,"type":"SCALAR"},{"bufferView":8,"byteOffset":0,"count":4369,"componentType":5126,"type":"VEC3","min":[25.035200119018555,29.177986145019531,1.1363589692336973E-5],"max":[114.66480255126953,110.52198028564453,95.818405151367188]},{"bufferView":9,"byteOffset":0,"count":26202,"componentType":5125,"type":"SCALAR"}],"bufferViews":[{"buffer":0,"byteOffset":0,"byteLength":128628,"byteStride":12,"target":34962},{"buffer":0,"byteOffset":128628,"byteLength":49408,"byteStride":8,"target":34962},{"buffer":0,"byteOffset":178036,"byteLength":18172,"byteStride":4,"target":34962},{"buffer":0,"byteOffset":196208,"byteLength":245316,"target":34963},{"buffer":0,"byteOffset":441524,"byteLength":56220,"byteStride":12,"target":34962},{"buffer":0,"byteOffset":497744,"byteLength":112392,"target":34963},{"buffer":0,"byteOffset":610136,"byteLength":56220,"byteStride":12,"target":34962},{"buffer":0,"byteOffset":666356,"byteLength":112392,"target":34963},{"buffer":0,"byteOffset":778748,"byteLength":52428,"byteStride":12,"target":34962},{"buffer":0,"byteOffset":831176,"byteLength":104808,"target":34963}],"buffers":[{"byteLength":935984,"uri":"cvijet.na.stalku.bin"}]}