{"asset":{"generator":"3D Builder","version":"2.0"},"scene":0,"scenes":[{"nodes":[0]}],"nodes":[{"mesh":0,"matrix":[1,0,0,0,0,-1.1920928955078125E-7,-0.99999988079071045,0,0,0.99999988079071045,-1.1920928955078125E-7,0,-0.022882724180817604,0.04056398943066597,0.0081328311935067177,1]}],"meshes":[{"primitives":[{"attributes":{"POSITION":0,"TEXCOORD_0":1},"mode":4,"indices":2,"material":0}]}],"materials":[{"pbrMetallicRoughness":{"baseColorFactor":[1,1,1,1],"metallicFactor":1,"roughnessFactor":1,"baseColorTexture":{"index":0,"texCoord":0},"metallicRoughnessTexture":{"index":1,"texCoord":0}},"alphaMode":"OPAQUE"}],"textures":[{"source":0,"sampler":0},{"source":1,"sampler":0}],"images":[{"uri":"2948524184_512x512_6195987693227547908.png"},{"uri":"2943748954_512x512_17319628118832143767.png"}],"samplers":[{"magFilter":9729,"wrapS":10497,"wrapT":10497}],"accessors":[{"bufferView":0,"byteOffset":0,"count":857,"componentType":5126,"type":"VEC3","min":[-0.2959027886390686,-0.28140535950660706,-0.040563993155956268],"max":[0.34166824817657471,0.29767102003097534,0.73353332281112671]},{"bufferView":1,"byteOffset":0,"count":857,"componentType":5126,"type":"VEC2"},{"bufferView":2,"byteOffset":0,"count":3255,"componentType":5125,"type":"SCALAR"}],"bufferViews":[{"buffer":0,"byteOffset":0,"byteLength":10284,"byteStride":12,"target":34962},{"buffer":0,"byteOffset":10284,"byteLength":6856,"byteStride":8,"target":34962},{"buffer":0,"byteOffset":17140,"byteLength":13020,"target":34963}],"buffers":[{"byteLength":30160,"uri":"Desert Plant 04.bin"}]}