{"asset":{"generator":"3D Builder","version":"2.0"},"scene":0,"scenes":[{"nodes":[0,4]}],"nodes":[{"children":[1,2,3]},{"mesh":0,"matrix":[19.816137313842773,0,0,0,0,-2.3622676508239238E-6,-19.816135406494141,0,0,19.816135406494141,-2.3622676508239238E-6,0,0.011414589360356331,0.02304275706410408,0.068944633007049561,1]},{"mesh":1,"matrix":[19.816137313842773,0,0,0,0,-2.3622676508239238E-6,-19.816135406494141,0,0,19.816135406494141,-2.3622676508239238E-6,0,0.011414589360356331,0.02304275706410408,0.068944633007049561,1]},{"mesh":2,"matrix":[19.816137313842773,0,0,0,0,-2.3622676508239238E-6,-19.816135406494141,0,0,19.816135406494141,-2.3622676508239238E-6,0,0.011414589360356331,0.02304275706410408,0.068944633007049561,1]},{"mesh":3,"matrix":[1.1111341714859009,0,0,0,0,-1.3245751517843019E-7,-1.1111340522766113,0,0,1.1175416707992554,-1.33221362830227E-7,0,-0.0036671236157417297,1.3067640066146851,-0.12184452265501022,1]}],"meshes":[{"primitives":[{"attributes":{"POSITION":0,"TEXCOORD_0":1},"mode":4,"indices":2,"material":0}]},{"primitives":[{"attributes":{"POSITION":3,"TEXCOORD_0":4},"mode":4,"indices":5,"material":0}]},{"primitives":[{"attributes":{"POSITION":6,"TEXCOORD_0":7},"mode":4,"indices":8,"material":0}]},{"primitives":[{"attributes":{"POSITION":9,"TEXCOORD_0":10},"mode":4,"indices":11,"material":1}]}],"materials":[{"pbrMetallicRoughness":{"baseColorFactor":[1,1,1,1],"metallicFactor":1,"roughnessFactor":1,"baseColorTexture":{"index":0,"texCoord":0},"metallicRoughnessTexture":{"index":1,"texCoord":0}},"alphaMode":"OPAQUE"},{"pbrMetallicRoughness":{"baseColorFactor":[1,1,1,1],"metallicFactor":1,"roughnessFactor":1,"baseColorTexture":{"index":2,"texCoord":0},"metallicRoughnessTexture":{"index":3,"texCoord":0}},"alphaMode":"OPAQUE"}],"textures":[{"source":0,"sampler":0},{"source":1,"sampler":0},{"source":2,"sampler":0},{"source":3,"sampler":0}],"images":[{"uri":"4056559885_2048x2048_6195987693227547908.png"},{"uri":"3273673013_2048x2048_17319628118832143767.png"},{"uri":"8598763_1024x1024_1535343169432686052.png"},{"uri":"3380630594_1024x1024_18213029355133818487.png"}],"samplers":[{"magFilter":9729,"wrapS":10497,"wrapT":10497}],"accessors":[{"bufferView":0,"byteOffset":0,"count":2397,"componentType":5126,"type":"VEC3","min":[-0.029831428080797195,-0.010126934386789799,0.00022446650837082416],"max":[0.028678569942712784,0.017084840685129166,0.062080018222332]},{"bufferView":1,"byteOffset":0,"count":2397,"componentType":5126,"type":"VEC2"},{"bufferView":2,"byteOffset":0,"count":12660,"componentType":5125,"type":"SCALAR"},{"bufferView":3,"byteOffset":0,"count":465,"componentType":5126,"type":"VEC3","min":[0.015068269334733486,0.0036691061686724424,0.029945861548185349],"max":[0.026592912152409554,0.011314193718135357,0.04235319048166275]},{"bufferView":4,"byteOffset":0,"count":465,"componentType":5126,"type":"VEC2"},{"bufferView":5,"byteOffset":0,"count":2316,"componentType":5125,"type":"SCALAR"},{"bufferView":6,"byteOffset":0,"count":469,"componentType":5126,"type":"VEC3","min":[-0.029257949441671371,0.0033477649558335543,0.029362902045249939],"max":[-0.015565910376608372,0.011610395275056362,0.04316822811961174]},{"bufferView":7,"byteOffset":0,"count":469,"componentType":5126,"type":"VEC2"},{"bufferView":8,"byteOffset":0,"count":2340,"componentType":5125,"type":"SCALAR"},{"bufferView":9,"byteOffset":0,"count":1922,"componentType":5126,"type":"VEC3","min":[-0.26041364669799805,-0.25034356117248535,-0.10185576975345612],"max":[0.26701542735099792,0.14878880977630615,0.39415675401687622]},{"bufferView":10,"byteOffset":0,"count":1922,"componentType":5126,"type":"VEC2"},{"bufferView":11,"byteOffset":0,"count":9444,"componentType":5125,"type":"SCALAR"}],"bufferViews":[{"buffer":0,"byteOffset":0,"byteLength":28764,"byteStride":12,"target":34962},{"buffer":0,"byteOffset":28764,"byteLength":19176,"byteStride":8,"target":34962},{"buffer":0,"byteOffset":47940,"byteLength":50640,"target":34963},{"buffer":0,"byteOffset":98580,"byteLength":5580,"byteStride":12,"target":34962},{"buffer":0,"byteOffset":104160,"byteLength":3720,"byteStride":8,"target":34962},{"buffer":0,"byteOffset":107880,"byteLength":9264,"target":34963},{"buffer":0,"byteOffset":117144,"byteLength":5628,"byteStride":12,"target":34962},{"buffer":0,"byteOffset":122772,"byteLength":3752,"byteStride":8,"target":34962},{"buffer":0,"byteOffset":126524,"byteLength":9360,"target":34963},{"buffer":0,"byteOffset":135884,"byteLength":23064,"byteStride":12,"target":34962},{"buffer":0,"byteOffset":158948,"byteLength":15376,"byteStride":8,"target":34962},{"buffer":0,"byteOffset":174324,"byteLength":37776,"target":34963}],"buffers":[{"byteLength":212100,"uri":"FAT BOI.bin"}]}