{"asset":{"generator":"3D Builder","version":"2.0"},"scene":0,"scenes":[{"nodes":[0]}],"nodes":[{"mesh":0,"matrix":[37.793613433837891,0,0,0,0,-4.5053498070046771E-6,-37.793609619140625,0,0,37.793609619140625,-4.5053498070046771E-6,0,0.0018038388807326555,-0.0015523949405178428,-0.0046357680112123489,1]}],"meshes":[{"primitives":[{"attributes":{"POSITION":0,"TEXCOORD_0":1},"mode":4,"indices":2,"material":0}]}],"materials":[{"pbrMetallicRoughness":{"baseColorFactor":[1,1,1,1],"metallicFactor":1,"roughnessFactor":1,"baseColorTexture":{"index":0,"texCoord":0},"metallicRoughnessTexture":{"index":1,"texCoord":0}},"alphaMode":"OPAQUE"}],"textures":[{"source":0,"sampler":0},{"source":1,"sampler":0}],"images":[{"uri":"1122546682_2048x2048_6195987693227547908.png"},{"uri":"856712268_2048x2048_17319628118832143767.png"}],"samplers":[{"magFilter":9729,"wrapS":10497,"wrapT":10497}],"accessors":[{"bufferView":0,"byteOffset":0,"count":5601,"componentType":5126,"type":"VEC3","min":[-0.015458096750080585,-0.015662889927625656,4.1075578337768093E-5],"max":[0.015622353181242943,0.015417575836181641,0.035025071352720261]},{"bufferView":1,"byteOffset":0,"count":5601,"componentType":5126,"type":"VEC2"},{"bufferView":2,"byteOffset":0,"count":28062,"componentType":5125,"type":"SCALAR"}],"bufferViews":[{"buffer":0,"byteOffset":0,"byteLength":67212,"byteStride":12,"target":34962},{"buffer":0,"byteOffset":67212,"byteLength":44808,"byteStride":8,"target":34962},{"buffer":0,"byteOffset":112020,"byteLength":112248,"target":34963}],"buffers":[{"byteLength":224268,"uri":"Fountain.bin"}]}