{"asset":{"generator":"3D Builder","version":"2.0"},"scene":0,"scenes":[{"nodes":[0]}],"nodes":[{"mesh":0,"matrix":[1,0,0,0,0,-1.1920928955078125E-7,-0.99999988079071045,0,0,0.99999988079071045,-1.1920928955078125E-7,0,-0.045701619237661362,0.026715464890003204,-0.051261886954307556,1]}],"meshes":[{"primitives":[{"attributes":{"POSITION":0,"TEXCOORD_0":1},"mode":4,"indices":2,"material":0}]}],"materials":[{"pbrMetallicRoughness":{"baseColorFactor":[1,1,1,1],"metallicFactor":1,"roughnessFactor":1,"baseColorTexture":{"index":0,"texCoord":0},"metallicRoughnessTexture":{"index":1,"texCoord":0}},"alphaMode":"OPAQUE"}],"textures":[{"source":0,"sampler":0},{"source":1,"sampler":0}],"images":[{"uri":"3596550071_512x512_6195987693227547908.png"},{"uri":"3457633276_512x512_17319628118832143767.png"}],"samplers":[{"magFilter":9729,"wrapS":10497,"wrapT":10497}],"accessors":[{"bufferView":0,"byteOffset":0,"count":5190,"componentType":5126,"type":"VEC3","min":[-0.84453272819519043,-0.78542953729629517,-0.0267154760658741],"max":[0.93593597412109375,0.68290573358535767,3.1724298000335693]},{"bufferView":1,"byteOffset":0,"count":5190,"componentType":5126,"type":"VEC2"},{"bufferView":2,"byteOffset":0,"count":19752,"componentType":5125,"type":"SCALAR"}],"bufferViews":[{"buffer":0,"byteOffset":0,"byteLength":62280,"byteStride":12,"target":34962},{"buffer":0,"byteOffset":62280,"byteLength":41520,"byteStride":8,"target":34962},{"buffer":0,"byteOffset":103800,"byteLength":79008,"target":34963}],"buffers":[{"byteLength":182808,"uri":"Large Desert Plant 02.bin"}]}