{"asset":{"generator":"3D Builder","version":"2.0"},"scene":0,"scenes":[{"nodes":[0]}],"nodes":[{"mesh":0,"matrix":[1,0,0,0,0,-1.1920928955078125E-7,-0.99999988079071045,0,0,0.99999988079071045,-1.1920928955078125E-7,0,0.0099534140899777412,0.0093767689540982246,0.10178262740373611,1]}],"meshes":[{"primitives":[{"attributes":{"POSITION":0,"TEXCOORD_0":1},"mode":4,"indices":2,"material":0}]}],"materials":[{"pbrMetallicRoughness":{"baseColorFactor":[1,1,1,1],"metallicFactor":1,"roughnessFactor":1,"baseColorTexture":{"index":0,"texCoord":0},"metallicRoughnessTexture":{"index":1,"texCoord":0}},"alphaMode":"OPAQUE"}],"textures":[{"source":0,"sampler":0},{"source":1,"sampler":0}],"images":[{"uri":"1334677630_256x256_6195987693227547908.png"},{"uri":"4249905156_256x256_17319628118832143767.png"}],"samplers":[{"magFilter":9729,"wrapS":10497,"wrapT":10497}],"accessors":[{"bufferView":0,"byteOffset":0,"count":332,"componentType":5126,"type":"VEC3","min":[-0.57134795188903809,-0.43722286820411682,-0.00937675777822733],"max":[0.55144113302230835,0.64078813791275024,0.90058183670043945]},{"bufferView":1,"byteOffset":0,"count":332,"componentType":5126,"type":"VEC2"},{"bufferView":2,"byteOffset":0,"count":1170,"componentType":5125,"type":"SCALAR"}],"bufferViews":[{"buffer":0,"byteOffset":0,"byteLength":3984,"byteStride":12,"target":34962},{"buffer":0,"byteOffset":3984,"byteLength":2656,"byteStride":8,"target":34962},{"buffer":0,"byteOffset":6640,"byteLength":4680,"target":34963}],"buffers":[{"byteLength":11320,"uri":"Medium Plant 01.bin"}]}