{"asset":{"generator":"3D Builder","version":"2.0"},"scene":0,"scenes":[{"nodes":[0,1]}],"nodes":[{"mesh":0,"matrix":[1,0,0,0,0,-1.1920928955078125E-7,-0.99999988079071045,0,0,0.99999988079071045,-1.1920928955078125E-7,0,-0.70992487668991089,1.7287899255752563,-0.2625749409198761,1]},{"mesh":1,"matrix":[1,0,0,0,0,-1.1920928955078125E-7,-0.99999988079071045,0,0,0.99999988079071045,-1.1920928955078125E-7,0,-0.70992487668991089,1.7287899255752563,-0.2625749409198761,1]}],"meshes":[{"primitives":[{"attributes":{"POSITION":0,"TEXCOORD_0":1},"mode":4,"indices":2,"material":0}]},{"primitives":[{"attributes":{"POSITION":3,"TEXCOORD_0":4},"mode":4,"indices":5,"material":1}]}],"materials":[{"pbrMetallicRoughness":{"baseColorFactor":[1,1,1,1],"metallicFactor":1,"roughnessFactor":1,"baseColorTexture":{"index":0,"texCoord":0},"metallicRoughnessTexture":{"index":1,"texCoord":0}},"alphaMode":"OPAQUE"},{"pbrMetallicRoughness":{"baseColorFactor":[1,1,1,1],"metallicFactor":1,"roughnessFactor":1,"baseColorTexture":{"index":2,"texCoord":0},"metallicRoughnessTexture":{"index":3,"texCoord":0}},"alphaMode":"OPAQUE"}],"textures":[{"source":0,"sampler":0},{"source":1,"sampler":0},{"source":2,"sampler":0},{"source":3,"sampler":0}],"images":[{"uri":"1364858667_512x512_6195987693227547908.png"},{"uri":"1097869387_512x512_17319628118832143767.png"},{"uri":"2291400117_512x512_11563080508590297124.png"},{"uri":"2149732722_512x512_12154559721164250551.png"}],"samplers":[{"magFilter":9729,"wrapS":10497,"wrapT":10497}],"accessors":[{"bufferView":0,"byteOffset":0,"count":958,"componentType":5126,"type":"VEC3","min":[-3.781407356262207,-3.3670811653137207,1.9981434345245361],"max":[5.2012572288513184,2.8419318199157715,6.0005760192871094]},{"bufferView":1,"byteOffset":0,"count":958,"componentType":5126,"type":"VEC2"},{"bufferView":2,"byteOffset":0,"count":4596,"componentType":5125,"type":"SCALAR"},{"bufferView":3,"byteOffset":0,"count":3140,"componentType":5126,"type":"VEC3","min":[-2.2231912612915039,-2.5830833911895752,-1.728790283203125],"max":[4.4334464073181152,2.13519287109375,4.9023723602294922]},{"bufferView":4,"byteOffset":0,"count":3140,"componentType":5126,"type":"VEC2"},{"bufferView":5,"byteOffset":0,"count":16101,"componentType":5125,"type":"SCALAR"}],"bufferViews":[{"buffer":0,"byteOffset":0,"byteLength":11496,"byteStride":12,"target":34962},{"buffer":0,"byteOffset":11496,"byteLength":7664,"byteStride":8,"target":34962},{"buffer":0,"byteOffset":19160,"byteLength":18384,"target":34963},{"buffer":0,"byteOffset":37544,"byteLength":37680,"byteStride":12,"target":34962},{"buffer":0,"byteOffset":75224,"byteLength":25120,"byteStride":8,"target":34962},{"buffer":0,"byteOffset":100344,"byteLength":64404,"target":34963}],"buffers":[{"byteLength":164748,"uri":"Medium Oak Tree.bin"}]}