{"asset":{"generator":"3D Builder","version":"2.0"},"scene":0,"scenes":[{"nodes":[0]}],"nodes":[{"mesh":0,"matrix":[1,0,0,0,0,-1.1920928955078125E-7,-0.99999988079071045,0,0,0.99999988079071045,-1.1920928955078125E-7,0,9.0280344011262059E-5,-9.04137414181605E-5,0.0058416426181793213,1]}],"meshes":[{"primitives":[{"attributes":{"POSITION":0,"TEXCOORD_0":1},"mode":4,"indices":2,"material":0}]}],"materials":[{"pbrMetallicRoughness":{"baseColorFactor":[1,1,1,1],"metallicFactor":1,"roughnessFactor":1,"baseColorTexture":{"index":0,"texCoord":0},"metallicRoughnessTexture":{"index":1,"texCoord":0}},"alphaMode":"OPAQUE"}],"textures":[{"source":0,"sampler":0},{"source":1,"sampler":0}],"images":[{"uri":"1961170566_2048x2048_6195987693227547908.png"},{"uri":"1178283694_1024x1024_17319628118832143767.png"}],"samplers":[{"magFilter":9729,"wrapS":10497,"wrapT":10497}],"accessors":[{"bufferView":0,"byteOffset":0,"count":3958,"componentType":5126,"type":"VEC3","min":[-0.06042109802365303,-0.038679949939250946,9.0414447186049074E-5],"max":[0.060240540653467178,0.050363235175609589,0.0507919080555439]},{"bufferView":1,"byteOffset":0,"count":3958,"componentType":5126,"type":"VEC2"},{"bufferView":2,"byteOffset":0,"count":20172,"componentType":5125,"type":"SCALAR"}],"bufferViews":[{"buffer":0,"byteOffset":0,"byteLength":47496,"byteStride":12,"target":34962},{"buffer":0,"byteOffset":47496,"byteLength":31664,"byteStride":8,"target":34962},{"buffer":0,"byteOffset":79160,"byteLength":80688,"target":34963}],"buffers":[{"byteLength":159848,"uri":"Monarch butterfly.bin"}]}