{"asset":{"generator":"3D Builder","version":"2.0"},"scene":0,"scenes":[{"nodes":[0]}],"nodes":[{"mesh":0,"matrix":[1,0,0,0,0,-1.1920928955078125E-7,-0.99999988079071045,0,0,0.99999988079071045,-1.1920928955078125E-7,0,4.8446654687950286E-8,0.010839587077498436,0.46221417188644409,1]}],"meshes":[{"primitives":[{"attributes":{"POSITION":0,"TEXCOORD_0":1},"mode":4,"indices":2,"material":0}]}],"materials":[{"pbrMetallicRoughness":{"baseColorFactor":[1,1,1,1],"metallicFactor":1,"roughnessFactor":1,"baseColorTexture":{"index":0,"texCoord":0},"metallicRoughnessTexture":{"index":1,"texCoord":0}},"alphaMode":"OPAQUE"}],"textures":[{"source":0,"sampler":0},{"source":1,"sampler":0}],"images":[{"uri":"430170351_512x512_6195987693227547908.png"},{"uri":"403804423_512x512_17319628118832143767.png"}],"samplers":[{"magFilter":9729,"wrapS":10497,"wrapT":10497}],"accessors":[{"bufferView":0,"byteOffset":0,"count":2412,"componentType":5126,"type":"VEC3","min":[-1.2560927867889404,-0.013645346276462078,-0.010839533060789108],"max":[1.2560926675796509,0.93807381391525269,1.32815420627594]},{"bufferView":1,"byteOffset":0,"count":2412,"componentType":5126,"type":"VEC2"},{"bufferView":2,"byteOffset":0,"count":10521,"componentType":5125,"type":"SCALAR"}],"bufferViews":[{"buffer":0,"byteOffset":0,"byteLength":28944,"byteStride":12,"target":34962},{"buffer":0,"byteOffset":28944,"byteLength":19296,"byteStride":8,"target":34962},{"buffer":0,"byteOffset":48240,"byteLength":42084,"target":34963}],"buffers":[{"byteLength":90324,"uri":"Outdoor Bench 01.bin"}]}