{"asset":{"generator":"3D Builder","version":"2.0"},"scene":0,"scenes":[{"nodes":[0]}],"nodes":[{"mesh":0,"matrix":[1,0,0,0,0,-1.1920928955078125E-7,-0.99999988079071045,0,0,0.99999988079071045,-1.1920928955078125E-7,0,-0.00042549788486212492,8.8652916019782424E-5,-0.005748123861849308,1]}],"meshes":[{"primitives":[{"attributes":{"POSITION":0,"TEXCOORD_0":1},"mode":4,"indices":2,"material":0}]}],"materials":[{"pbrMetallicRoughness":{"baseColorFactor":[1,1,1,1],"metallicFactor":1,"roughnessFactor":1,"baseColorTexture":{"index":0,"texCoord":0},"metallicRoughnessTexture":{"index":1,"texCoord":0}},"alphaMode":"OPAQUE"}],"textures":[{"source":0,"sampler":0},{"source":1,"sampler":0}],"images":[{"uri":"4004488317_2048x2048_6195987693227547908.png"},{"uri":"4022277132_2048x2048_17319628118832143767.png"}],"samplers":[{"magFilter":9729,"wrapS":10497,"wrapT":10497}],"accessors":[{"bufferView":0,"byteOffset":0,"count":7446,"componentType":5126,"type":"VEC3","min":[-0.051952775567770004,-0.058656390756368637,-8.8653607235755771E-5],"max":[0.052803769707679749,0.047160137444734573,0.14436237514019012]},{"bufferView":1,"byteOffset":0,"count":7446,"componentType":5126,"type":"VEC2"},{"bufferView":2,"byteOffset":0,"count":29982,"componentType":5125,"type":"SCALAR"}],"bufferViews":[{"buffer":0,"byteOffset":0,"byteLength":89352,"byteStride":12,"target":34962},{"buffer":0,"byteOffset":89352,"byteLength":59568,"byteStride":8,"target":34962},{"buffer":0,"byteOffset":148920,"byteLength":119928,"target":34963}],"buffers":[{"byteLength":268848,"uri":"Palm Tree.bin"}]}