{"asset":{"generator":"3D Builder","version":"2.0"},"scene":0,"scenes":[{"nodes":[0,1]}],"nodes":[{"mesh":0,"matrix":[1,0,0,0,0,-1.1920928955078125E-7,-0.99999988079071045,0,0,0.99999988079071045,-1.1920928955078125E-7,0,-0.0017604060703888535,-0.0006532286643050611,-0.014886382967233658,1]},{"mesh":1,"matrix":[1,0,0,0,0,-1.1920928955078125E-7,-0.99999988079071045,0,0,0.99999988079071045,-1.1920928955078125E-7,0,-0.0017604060703888535,-0.0006532286643050611,-0.014886382967233658,1]}],"meshes":[{"primitives":[{"attributes":{"POSITION":0,"TEXCOORD_0":1},"mode":4,"indices":2,"material":0}]},{"primitives":[{"attributes":{"POSITION":3,"TEXCOORD_0":4},"mode":4,"indices":5,"material":0}]}],"materials":[{"pbrMetallicRoughness":{"baseColorFactor":[1,1,1,1],"metallicFactor":1,"roughnessFactor":1,"baseColorTexture":{"index":0,"texCoord":0},"metallicRoughnessTexture":{"index":1,"texCoord":0}},"alphaMode":"OPAQUE"}],"textures":[{"source":0,"sampler":0},{"source":1,"sampler":0}],"images":[{"uri":"1115567641_2048x2048_6195987693227547908.png"},{"uri":"332680769_2048x2048_17319628118832143767.png"}],"samplers":[{"magFilter":9729,"wrapS":10497,"wrapT":10497}],"accessors":[{"bufferView":0,"byteOffset":0,"count":47015,"componentType":5126,"type":"VEC3","min":[-0.36492040753364563,-0.39843839406967163,0.0011664920020848513],"max":[0.36844122409820557,0.36866563558578491,0.81479161977767944]},{"bufferView":1,"byteOffset":0,"count":47015,"componentType":5126,"type":"VEC2"},{"bufferView":2,"byteOffset":0,"count":94368,"componentType":5125,"type":"SCALAR"},{"bufferView":3,"byteOffset":0,"count":26292,"componentType":5126,"type":"VEC3","min":[-0.3459896445274353,-0.37547454237937927,0.00065322697628289461],"max":[0.35078677535057068,0.34824380278587341,0.79442685842514038]},{"bufferView":4,"byteOffset":0,"count":26292,"componentType":5126,"type":"VEC2"},{"bufferView":5,"byteOffset":0,"count":92451,"componentType":5125,"type":"SCALAR"}],"bufferViews":[{"buffer":0,"byteOffset":0,"byteLength":564180,"byteStride":12,"target":34962},{"buffer":0,"byteOffset":564180,"byteLength":376120,"byteStride":8,"target":34962},{"buffer":0,"byteOffset":940300,"byteLength":377472,"target":34963},{"buffer":0,"byteOffset":1317772,"byteLength":315504,"byteStride":12,"target":34962},{"buffer":0,"byteOffset":1633276,"byteLength":210336,"byteStride":8,"target":34962},{"buffer":0,"byteOffset":1843612,"byteLength":369804,"target":34963}],"buffers":[{"byteLength":2213416,"uri":"Shrub.bin"}]}