{"asset":{"generator":"3D Builder","version":"2.0"},"scene":0,"scenes":[{"nodes":[0]}],"nodes":[{"mesh":0,"matrix":[1,0,0,0,0,-1.1920928955078125E-7,-0.99999988079071045,0,0,0.99999988079071045,-1.1920928955078125E-7,0,0.00051620532758533955,0.00058060011360794306,0.00011592215741984546,1]}],"meshes":[{"primitives":[{"attributes":{"POSITION":0,"TEXCOORD_0":1},"mode":4,"indices":2,"material":0}]}],"materials":[{"pbrMetallicRoughness":{"baseColorFactor":[1,1,1,1],"metallicFactor":1,"roughnessFactor":1,"baseColorTexture":{"index":0,"texCoord":0},"metallicRoughnessTexture":{"index":1,"texCoord":0}},"alphaMode":"OPAQUE"}],"textures":[{"source":0,"sampler":0},{"source":1,"sampler":0}],"images":[{"uri":"3896957955_256x512_6195987693227547908.png"},{"uri":"809137425_32x32_17319628118832143767.png"}],"samplers":[{"magFilter":9729,"wrapS":10497,"wrapT":10497}],"accessors":[{"bufferView":0,"byteOffset":0,"count":573,"componentType":5126,"type":"VEC3","min":[-0.0066931913606822491,-0.0060569485649466515,-0.000580600171815604],"max":[0.00566078070551157,0.0062887929379940033,0.045292023569345474]},{"bufferView":1,"byteOffset":0,"count":573,"componentType":5126,"type":"VEC2"},{"bufferView":2,"byteOffset":0,"count":1374,"componentType":5125,"type":"SCALAR"}],"bufferViews":[{"buffer":0,"byteOffset":0,"byteLength":6876,"byteStride":12,"target":34962},{"buffer":0,"byteOffset":6876,"byteLength":4584,"byteStride":8,"target":34962},{"buffer":0,"byteOffset":11460,"byteLength":5496,"target":34963}],"buffers":[{"byteLength":16956,"uri":"Street Light.bin"}]}