{"asset":{"generator":"3D Builder","version":"2.0"},"scene":0,"scenes":[{"nodes":[0]}],"nodes":[{"mesh":0,"matrix":[1,0,0,0,0,-1.1920928955078125E-7,-0.99999988079071045,0,0,0.99999988079071045,-1.1920928955078125E-7,0,0.00044025745592080057,1.2330257648240917E-10,-0.001217197859659791,1]}],"meshes":[{"primitives":[{"attributes":{"POSITION":0,"TEXCOORD_0":1},"mode":4,"indices":2,"material":0}]}],"materials":[{"pbrMetallicRoughness":{"baseColorFactor":[1,1,1,1],"metallicFactor":1,"roughnessFactor":1,"baseColorTexture":{"index":0,"texCoord":0},"metallicRoughnessTexture":{"index":1,"texCoord":0}},"alphaMode":"OPAQUE"}],"textures":[{"source":0,"sampler":0},{"source":1,"sampler":0}],"images":[{"uri":"1959779725_2048x2048_6195987693227547908.png"},{"uri":"395440950_2048x2048_17319628118832143767.png"}],"samplers":[{"magFilter":9729,"wrapS":10497,"wrapT":10497}],"accessors":[{"bufferView":0,"byteOffset":0,"count":25560,"componentType":5126,"type":"VEC3","min":[-0.027539892122149467,-0.028228195384144783,-2.6840391020854781E-10],"max":[0.026659376919269562,0.025793798267841339,0.1686091423034668]},{"bufferView":1,"byteOffset":0,"count":25560,"componentType":5126,"type":"VEC2"},{"bufferView":2,"byteOffset":0,"count":61896,"componentType":5125,"type":"SCALAR"}],"bufferViews":[{"buffer":0,"byteOffset":0,"byteLength":306720,"byteStride":12,"target":34962},{"buffer":0,"byteOffset":306720,"byteLength":204480,"byteStride":8,"target":34962},{"buffer":0,"byteOffset":511200,"byteLength":247584,"target":34963}],"buffers":[{"byteLength":758784,"uri":"Topiary 3.bin"}]}