{"asset":{"generator":"3D Builder","version":"2.0"},"scene":0,"scenes":[{"nodes":[0]}],"nodes":[{"mesh":0,"matrix":[1,0,0,0,0,-1.1920928955078125E-7,-0.99999988079071045,0,0,0.99999988079071045,-1.1920928955078125E-7,0,0.0034900070168077946,-1.3090093489154242E-5,0.0023931516334414482,1]}],"meshes":[{"primitives":[{"attributes":{"POSITION":0,"TEXCOORD_0":2},"mode":4,"indices":4,"material":0},{"attributes":{"POSITION":1,"COLOR_0":3},"mode":4,"indices":5}]}],"materials":[{"pbrMetallicRoughness":{"baseColorFactor":[1,1,1,1],"metallicFactor":1,"roughnessFactor":1,"baseColorTexture":{"index":0,"texCoord":0},"metallicRoughnessTexture":{"index":1,"texCoord":0}},"alphaMode":"OPAQUE"}],"textures":[{"source":0,"sampler":0},{"source":1,"sampler":0}],"images":[{"uri":"3632205257_2048x2048_6195987693227547908.png"},{"uri":"2849318385_2048x2048_17319628118832143767.png"}],"samplers":[{"magFilter":9729,"wrapS":10497,"wrapT":10497}],"accessors":[{"bufferView":0,"byteOffset":0,"count":6181,"componentType":5126,"type":"VEC3","min":[-0.018374953418970108,-0.007592606358230114,1.3090381798974704E-5],"max":[0.011394939385354519,0.012378910556435585,0.033278893679380417]},{"bufferView":0,"byteOffset":74172,"count":4543,"componentType":5126,"type":"VEC3","min":[-0.0035734169650822878,-0.0027985477354377508,0.026738416403532028],"max":[0.0040162140503525734,0.00324612227268517,0.036750327795743942]},{"bufferView":1,"byteOffset":0,"count":6181,"componentType":5126,"type":"VEC2"},{"bufferView":2,"byteOffset":0,"count":4543,"componentType":5121,"type":"VEC4","normalized":true},{"bufferView":3,"byteOffset":0,"count":34143,"componentType":5125,"type":"SCALAR"},{"bufferView":3,"byteOffset":136572,"count":27186,"componentType":5125,"type":"SCALAR"}],"bufferViews":[{"buffer":0,"byteOffset":0,"byteLength":128688,"byteStride":12,"target":34962},{"buffer":0,"byteOffset":128688,"byteLength":49448,"byteStride":8,"target":34962},{"buffer":0,"byteOffset":178136,"byteLength":18172,"byteStride":4,"target":34962},{"buffer":0,"byteOffset":196308,"byteLength":245316,"target":34963}],"buffers":[{"byteLength":441624,"uri":"Tulip.bin"}]}