{"asset":{"generator":"3D Builder","version":"2.0"},"scene":0,"scenes":[{"nodes":[0]}],"nodes":[{"mesh":0,"matrix":[4.0140495300292969,0,0,0,0,-4.7851199269643985E-7,-4.0140490531921387,0,0,4.0140490531921387,-4.7851199269643985E-7,0,0.014008999802172184,-5.2544804930221289E-5,0.0049332594498991966,1]}],"meshes":[{"primitives":[{"attributes":{"POSITION":0,"TEXCOORD_0":2},"mode":4,"indices":4,"material":0},{"attributes":{"POSITION":1,"COLOR_0":3},"mode":4,"indices":5}]}],"materials":[{"pbrMetallicRoughness":{"baseColorFactor":[1,1,1,1],"metallicFactor":1,"roughnessFactor":1,"baseColorTexture":{"index":0,"texCoord":0},"metallicRoughnessTexture":{"index":1,"texCoord":0}},"alphaMode":"OPAQUE"}],"textures":[{"source":0,"sampler":0},{"source":1,"sampler":0}],"images":[{"uri":"3632205257_2048x2048_6195987693227547908.png"},{"uri":"2849318385_2048x2048_17319628118832143767.png"}],"samplers":[{"magFilter":9729,"wrapS":10497,"wrapT":10497}],"accessors":[{"bufferView":0,"byteOffset":0,"count":6176,"componentType":5126,"type":"VEC3","min":[-0.018374999985098839,-0.0075926100835204124,1.3090400898363441E-5],"max":[0.01139490120112896,0.012378900311887264,0.033278901129961014]},{"bufferView":0,"byteOffset":74112,"count":4543,"componentType":5126,"type":"VEC3","min":[-0.0035734202247112989,-0.0027985500637441874,0.026738401502370834],"max":[0.0040162103250622749,0.0032461201772093773,0.036750301718711853]},{"bufferView":1,"byteOffset":0,"count":6176,"componentType":5126,"type":"VEC2"},{"bufferView":2,"byteOffset":0,"count":4543,"componentType":5121,"type":"VEC4","normalized":true},{"bufferView":3,"byteOffset":0,"count":34143,"componentType":5125,"type":"SCALAR"},{"bufferView":3,"byteOffset":136572,"count":27186,"componentType":5125,"type":"SCALAR"}],"bufferViews":[{"buffer":0,"byteOffset":0,"byteLength":128628,"byteStride":12,"target":34962},{"buffer":0,"byteOffset":128628,"byteLength":49408,"byteStride":8,"target":34962},{"buffer":0,"byteOffset":178036,"byteLength":18172,"byteStride":4,"target":34962},{"buffer":0,"byteOffset":196208,"byteLength":245316,"target":34963}],"buffers":[{"byteLength":441524,"uri":"{188f3a52-d605-4dca-b7bf-824099b2b5ea}.3DBuilder.bin"}]}