{"asset":{"generator":"3D Builder","version":"2.0"},"scene":0,"scenes":[{"nodes":[0,1]}],"nodes":[{"mesh":0,"matrix":[1,0,0,0,0,-1.1920928955078125E-7,-0.99999988079071045,0,0,0.99999988079071045,-1.1920928955078125E-7,0,0.0905524268746376,0.024140443652868271,-0.027216967195272446,1]},{"mesh":1,"matrix":[0.26648741960525513,0,0,0,0,-3.17677759653634E-8,-0.26648738980293274,0,0,0.26648738980293274,-3.17677759653634E-8,0,0.0905444324016571,0.0011750345584005117,-0.027214517816901207,1]}],"meshes":[{"primitives":[{"attributes":{"POSITION":0,"COLOR_0":37},"mode":4,"indices":38},{"attributes":{"POSITION":1,"TEXCOORD_0":19},"mode":4,"indices":39,"material":0},{"attributes":{"POSITION":2,"TEXCOORD_0":20},"mode":4,"indices":40,"material":0},{"attributes":{"POSITION":3,"TEXCOORD_0":21},"mode":4,"indices":41,"material":0},{"attributes":{"POSITION":4,"TEXCOORD_0":22},"mode":4,"indices":42,"material":0},{"attributes":{"POSITION":5,"TEXCOORD_0":23},"mode":4,"indices":43,"material":0},{"attributes":{"POSITION":6,"TEXCOORD_0":24},"mode":4,"indices":44,"material":0},{"attributes":{"POSITION":7,"TEXCOORD_0":25},"mode":4,"indices":45,"material":0},{"attributes":{"POSITION":8,"TEXCOORD_0":26},"mode":4,"indices":46,"material":0},{"attributes":{"POSITION":9,"TEXCOORD_0":27},"mode":4,"indices":47,"material":0},{"attributes":{"POSITION":10,"TEXCOORD_0":28},"mode":4,"indices":48,"material":0},{"attributes":{"POSITION":11,"TEXCOORD_0":29},"mode":4,"indices":49,"material":0},{"attributes":{"POSITION":12,"TEXCOORD_0":30},"mode":4,"indices":50,"material":0},{"attributes":{"POSITION":13,"TEXCOORD_0":31},"mode":4,"indices":51,"material":0},{"attributes":{"POSITION":14,"TEXCOORD_0":32},"mode":4,"indices":52,"material":0},{"attributes":{"POSITION":15,"TEXCOORD_0":33},"mode":4,"indices":53,"material":1},{"attributes":{"POSITION":16,"TEXCOORD_0":34},"mode":4,"indices":54,"material":1},{"attributes":{"POSITION":17,"TEXCOORD_0":35},"mode":4,"indices":55,"material":1},{"attributes":{"POSITION":18,"TEXCOORD_0":36},"mode":4,"indices":56,"material":1}]},{"primitives":[{"attributes":{"POSITION":57},"mode":4,"indices":58,"material":2}]}],"materials":[{"pbrMetallicRoughness":{"baseColorFactor":[1,1,1,1],"metallicFactor":0,"roughnessFactor":1,"baseColorTexture":{"index":0,"texCoord":0}},"alphaMode":"OPAQUE"},{"pbrMetallicRoughness":{"baseColorFactor":[1,1,1,1],"metallicFactor":0,"roughnessFactor":1,"baseColorTexture":{"index":1,"texCoord":0}},"alphaMode":"OPAQUE"},{"name":"Orange_1_0","pbrMetallicRoughness":{"baseColorFactor":[1,0.21223072707653046,0.018500218167901039,1],"metallicFactor":0,"roughnessFactor":0.498039186000824},"alphaMode":"OPAQUE"}],"textures":[{"source":0,"sampler":0},{"source":1,"sampler":0}],"images":[{"uri":"papyrus.jpg"},{"uri":"medwood.jpg"}],"samplers":[{"magFilter":9729,"wrapS":10497,"wrapT":10497}],"accessors":[{"bufferView":0,"byteOffset":0,"count":2500,"componentType":5126,"type":"VEC3","min":[-0.047164268791675568,-0.049968555569648743,1.9265540274204795E-9],"max":[0.047163307666778564,0.049968518316745758,0.11799898743629456]},{"bufferView":0,"byteOffset":30000,"count":3,"componentType":5126,"type":"VEC3","min":[-0.0047223269939422607,-9.1932713985443115E-5,0.028070559725165367],"max":[-0.0045595169067382813,0.0005534738302230835,0.028890250250697136]},{"bufferView":0,"byteOffset":30036,"count":73,"componentType":5126,"type":"VEC3","min":[0.0013142675161361694,-0.0075744763016700745,3.3542608690595443E-9],"max":[0.0206727534532547,0.0022483989596366882,0.0501849539577961]},{"bufferView":0,"byteOffset":30912,"count":94,"componentType":5126,"type":"VEC3","min":[-0.01029735803604126,-0.047773778438568115,0.026865920051932335],"max":[0.00088337063789367676,-0.00098823010921478271,0.10808992385864258]},{"bufferView":0,"byteOffset":32040,"count":52,"componentType":5126,"type":"VEC3","min":[0.0095111876726150513,-0.023349691182374954,0.068099386990070343],"max":[0.047163307666778564,-0.0039356797933578491,0.11799898743629456]},{"bufferView":0,"byteOffset":32664,"count":32,"componentType":5126,"type":"VEC3","min":[-0.00498276948928833,-0.03245437890291214,0.057307444512844086],"max":[0.010018706321716309,-0.023713566362857819,0.078820474445819855]},{"bufferView":0,"byteOffset":33048,"count":82,"componentType":5126,"type":"VEC3","min":[-0.042380191385746,-0.0039337575435638428,0.039563458412885666],"max":[-0.0031480491161346436,0.0077506452798843384,0.10841934382915497]},{"bufferView":0,"byteOffset":34032,"count":23,"componentType":5126,"type":"VEC3","min":[0.0015536695718765259,-0.00037155300378799438,0.0647057294845581],"max":[0.0053955018520355225,0.030818797647953033,0.10317946225404739]},{"bufferView":0,"byteOffset":34308,"count":32,"componentType":5126,"type":"VEC3","min":[-0.025151371955871582,0.032371997833251953,0.064451016485691071],"max":[-0.013685286045074463,0.047632031142711639,0.0812680646777153]},{"bufferView":0,"byteOffset":34692,"count":34,"componentType":5126,"type":"VEC3","min":[-0.045850470662117004,-0.014880836009979248,0.076273314654827118],"max":[-0.029922045767307281,-0.000187702476978302,0.09138970822095871]},{"bufferView":0,"byteOffset":35100,"count":6,"componentType":5126,"type":"VEC3","min":[-0.0075280368328094482,-0.011155843734741211,0.078596413135528564],"max":[-0.0054883807897567749,-0.0084516331553459167,0.082014977931976318]},{"bufferView":0,"byteOffset":35172,"count":72,"componentType":5126,"type":"VEC3","min":[-0.017416030168533325,0.00079095363616943359,0.022679373621940613],"max":[-0.0034774690866470337,0.049968518316745758,0.094204999506473541]},{"bufferView":0,"byteOffset":36036,"count":36,"componentType":5126,"type":"VEC3","min":[0.0047290176153182983,0.0075419023633003235,0.071920156478881836],"max":[0.017941728234291077,0.028394199907779694,0.085004553198814392]},{"bufferView":0,"byteOffset":36468,"count":37,"componentType":5126,"type":"VEC3","min":[0.017330795526504517,-0.019527025520801544,0.082645058631896973],"max":[0.029530391097068787,0.00199175626039505,0.093383386731147766]},{"bufferView":0,"byteOffset":36912,"count":37,"componentType":5126,"type":"VEC3","min":[0.011321023106575012,-0.036612201482057571,0.067427173256874084],"max":[0.027691826224327087,-0.021513044834136963,0.0832502543926239]},{"bufferView":0,"byteOffset":37356,"count":77,"componentType":5126,"type":"VEC3","min":[-0.02202199399471283,-0.015715837478637695,2.3926398640128355E-9],"max":[-0.00043809413909912109,0.00092118233442306519,0.029202422127127647]},{"bufferView":0,"byteOffset":38280,"count":74,"componentType":5126,"type":"VEC3","min":[-0.00025807321071624756,-0.023401398211717606,0.047967191785573959],"max":[0.033471792936325073,-0.0048032328486442566,0.098353229463100433]},{"bufferView":0,"byteOffset":39168,"count":49,"componentType":5126,"type":"VEC3","min":[-0.0062525272369384766,-0.011155843734741211,0.048790715634822845],"max":[0.002352297306060791,-0.0034779459238052368,0.082014977931976318]},{"bufferView":0,"byteOffset":39756,"count":63,"componentType":5126,"type":"VEC3","min":[-0.00087475776672363281,-0.00012066960334777832,0.0655713826417923],"max":[0.0050086230039596558,0.030818797647953033,0.10317946225404739]},{"bufferView":1,"byteOffset":0,"count":3,"componentType":5126,"type":"VEC2"},{"bufferView":1,"byteOffset":24,"count":73,"componentType":5126,"type":"VEC2"},{"bufferView":1,"byteOffset":608,"count":94,"componentType":5126,"type":"VEC2"},{"bufferView":1,"byteOffset":1360,"count":52,"componentType":5126,"type":"VEC2"},{"bufferView":1,"byteOffset":1776,"count":32,"componentType":5126,"type":"VEC2"},{"bufferView":1,"byteOffset":2032,"count":82,"componentType":5126,"type":"VEC2"},{"bufferView":1,"byteOffset":2688,"count":23,"componentType":5126,"type":"VEC2"},{"bufferView":1,"byteOffset":2872,"count":32,"componentType":5126,"type":"VEC2"},{"bufferView":1,"byteOffset":3128,"count":34,"componentType":5126,"type":"VEC2"},{"bufferView":1,"byteOffset":3400,"count":6,"componentType":5126,"type":"VEC2"},{"bufferView":1,"byteOffset":3448,"count":72,"componentType":5126,"type":"VEC2"},{"bufferView":1,"byteOffset":4024,"count":36,"componentType":5126,"type":"VEC2"},{"bufferView":1,"byteOffset":4312,"count":37,"componentType":5126,"type":"VEC2"},{"bufferView":1,"byteOffset":4608,"count":37,"componentType":5126,"type":"VEC2"},{"bufferView":1,"byteOffset":4904,"count":77,"componentType":5126,"type":"VEC2"},{"bufferView":1,"byteOffset":5520,"count":74,"componentType":5126,"type":"VEC2"},{"bufferView":1,"byteOffset":6112,"count":49,"componentType":5126,"type":"VEC2"},{"bufferView":1,"byteOffset":6504,"count":63,"componentType":5126,"type":"VEC2"},{"bufferView":2,"byteOffset":0,"count":2500,"componentType":5121,"type":"VEC4","normalized":true},{"bufferView":3,"byteOffset":0,"count":13671,"componentType":5125,"type":"SCALAR"},{"bufferView":3,"byteOffset":54684,"count":3,"componentType":5125,"type":"SCALAR"},{"bufferView":3,"byteOffset":54696,"count":315,"componentType":5125,"type":"SCALAR"},{"bufferView":3,"byteOffset":55956,"count":438,"componentType":5125,"type":"SCALAR"},{"bufferView":3,"byteOffset":57708,"count":234,"componentType":5125,"type":"SCALAR"},{"bufferView":3,"byteOffset":58644,"count":120,"componentType":5125,"type":"SCALAR"},{"bufferView":3,"byteOffset":59124,"count":351,"componentType":5125,"type":"SCALAR"},{"bufferView":3,"byteOffset":60528,"count":57,"componentType":5125,"type":"SCALAR"},{"bufferView":3,"byteOffset":60756,"count":126,"componentType":5125,"type":"SCALAR"},{"bufferView":3,"byteOffset":61260,"count":129,"componentType":5125,"type":"SCALAR"},{"bufferView":3,"byteOffset":61776,"count":12,"componentType":5125,"type":"SCALAR"},{"bufferView":3,"byteOffset":61824,"count":321,"componentType":5125,"type":"SCALAR"},{"bufferView":3,"byteOffset":63108,"count":144,"componentType":5125,"type":"SCALAR"},{"bufferView":3,"byteOffset":63684,"count":135,"componentType":5125,"type":"SCALAR"},{"bufferView":3,"byteOffset":64224,"count":153,"componentType":5125,"type":"SCALAR"},{"bufferView":3,"byteOffset":64836,"count":345,"componentType":5125,"type":"SCALAR"},{"bufferView":3,"byteOffset":66216,"count":294,"componentType":5125,"type":"SCALAR"},{"bufferView":3,"byteOffset":67392,"count":189,"componentType":5125,"type":"SCALAR"},{"bufferView":3,"byteOffset":68148,"count":291,"componentType":5125,"type":"SCALAR"},{"bufferView":4,"byteOffset":0,"count":836,"componentType":5126,"type":"VEC3","min":[-0.058027520775794983,-0.058706037700176239,-2.4969040168798529E-9],"max":[0.058083713054656982,0.058724306523799896,0.11799918115139008]},{"bufferView":5,"byteOffset":0,"count":5004,"componentType":5125,"type":"SCALAR"}],"bufferViews":[{"buffer":0,"byteOffset":0,"byteLength":40512,"byteStride":12,"target":34962},{"buffer":0,"byteOffset":40512,"byteLength":7008,"byteStride":8,"target":34962},{"buffer":0,"byteOffset":47520,"byteLength":10000,"byteStride":4,"target":34962},{"buffer":0,"byteOffset":57520,"byteLength":69312,"target":34963},{"buffer":0,"byteOffset":126832,"byteLength":10032,"byteStride":12,"target":34962},{"buffer":0,"byteOffset":136864,"byteLength":20016,"target":34963}],"buffers":[{"byteLength":156880,"uri":"Bare tree.bin"}]}