{"asset":{"generator":"3D Builder","version":"2.0"},"scene":0,"scenes":[{"nodes":[0,1,2]}],"nodes":[{"mesh":0,"matrix":[1,0,0,0,0,-1.1920928955078125E-7,-0.99999988079071045,0,0,0.99999988079071045,-1.1920928955078125E-7,0,0,0,0,1]},{"mesh":1,"matrix":[1,0,0,0,0,-1.1920928955078125E-7,-0.99999988079071045,0,0,0.99999988079071045,-1.1920928955078125E-7,0,0,0,0,1]},{"mesh":2,"matrix":[1,0,0,0,0,-1.1920928955078125E-7,-0.99999988079071045,0,0,0.99999988079071045,-1.1920928955078125E-7,0,0,0,0,1]}],"meshes":[{"primitives":[{"attributes":{"POSITION":0,"TEXCOORD_0":1},"mode":4,"indices":2,"material":0}]},{"primitives":[{"attributes":{"POSITION":3,"TEXCOORD_0":4},"mode":4,"indices":5,"material":0}]},{"primitives":[{"attributes":{"POSITION":6,"TEXCOORD_0":7},"mode":4,"indices":8,"material":0}]}],"materials":[{"pbrMetallicRoughness":{"baseColorFactor":[1,1,1,1],"metallicFactor":1,"roughnessFactor":1,"baseColorTexture":{"index":0,"texCoord":0},"metallicRoughnessTexture":{"index":1,"texCoord":0}},"alphaMode":"OPAQUE"}],"textures":[{"source":0,"sampler":0},{"source":1,"sampler":0}],"images":[{"uri":"2942152757_4096x4096_6195987693227547908.png"},{"uri":"553304142_4096x4096_17319628118832143767_10852638490067281019.png"}],"samplers":[{"magFilter":9729,"wrapS":10497,"wrapT":10497}],"accessors":[{"bufferView":0,"byteOffset":0,"count":3416,"componentType":5126,"type":"VEC3","min":[-0.2299334704875946,-0.21893832087516785,0],"max":[0.19060142338275909,0.2156970202922821,0.69475036859512329]},{"bufferView":1,"byteOffset":0,"count":3416,"componentType":5126,"type":"VEC2"},{"bufferView":2,"byteOffset":0,"count":13962,"componentType":5125,"type":"SCALAR"},{"bufferView":3,"byteOffset":0,"count":14842,"componentType":5126,"type":"VEC3","min":[-0.23783552646636963,-0.21872992813587189,0.21224589645862579],"max":[0.23783552646636963,0.21893832087516785,0.71079754829406738]},{"bufferView":4,"byteOffset":0,"count":14842,"componentType":5126,"type":"VEC2"},{"bufferView":5,"byteOffset":0,"count":28221,"componentType":5125,"type":"SCALAR"},{"bufferView":6,"byteOffset":0,"count":2923,"componentType":5126,"type":"VEC3","min":[-0.16947147250175476,-0.19539284706115723,0.24141891300678253],"max":[0.18065713346004486,0.19096682965755463,0.65028619766235352]},{"bufferView":7,"byteOffset":0,"count":2923,"componentType":5126,"type":"VEC2"},{"bufferView":8,"byteOffset":0,"count":12726,"componentType":5125,"type":"SCALAR"}],"bufferViews":[{"buffer":0,"byteOffset":0,"byteLength":40992,"byteStride":12,"target":34962},{"buffer":0,"byteOffset":40992,"byteLength":27328,"byteStride":8,"target":34962},{"buffer":0,"byteOffset":68320,"byteLength":55848,"target":34963},{"buffer":0,"byteOffset":124168,"byteLength":178104,"byteStride":12,"target":34962},{"buffer":0,"byteOffset":302272,"byteLength":118736,"byteStride":8,"target":34962},{"buffer":0,"byteOffset":421008,"byteLength":112884,"target":34963},{"buffer":0,"byteOffset":533892,"byteLength":35076,"byteStride":12,"target":34962},{"buffer":0,"byteOffset":568968,"byteLength":23384,"byteStride":8,"target":34962},{"buffer":0,"byteOffset":592352,"byteLength":50904,"target":34963}],"buffers":[{"byteLength":643256,"uri":"AppleTree.bin"}]}