{"asset":{"generator":"3D Builder","version":"2.0"},"scene":0,"scenes":[{"nodes":[0]}],"nodes":[{"mesh":0,"matrix":[1,0,0,0,0,-1.1920930376163597E-7,-0.99999988079071045,0,0,0.99999988079071045,-1.1920930376163597E-7,0,0,0.0066314875148236752,-7.9053502632930872E-10,1]}],"meshes":[{"primitives":[{"attributes":{"POSITION":0,"TEXCOORD_0":1},"mode":4,"indices":2,"material":0}]}],"materials":[{"pbrMetallicRoughness":{"baseColorFactor":[1,1,1,1],"metallicFactor":1,"roughnessFactor":1,"baseColorTexture":{"index":0,"texCoord":0},"metallicRoughnessTexture":{"index":1,"texCoord":0}},"alphaMode":"OPAQUE"}],"textures":[{"source":0,"sampler":0},{"source":1,"sampler":0}],"images":[{"uri":"3884173406_2048x2048_6195987693227547908.png"},{"uri":"3101286534_1024x1024_17319628118832143767.png"}],"samplers":[{"magFilter":9729,"wrapS":10497,"wrapT":10497}],"accessors":[{"bufferView":0,"byteOffset":0,"count":4261,"componentType":5126,"type":"VEC3","min":[-0.024218715727329254,-0.030336007475852966,0.030885372310876846],"max":[0.02396518737077713,0.028800632804632187,0.083650410175323486]},{"bufferView":1,"byteOffset":0,"count":4261,"componentType":5126,"type":"VEC2"},{"bufferView":2,"byteOffset":0,"count":22287,"componentType":5125,"type":"SCALAR"}],"bufferViews":[{"buffer":0,"byteOffset":0,"byteLength":51132,"byteStride":12,"target":34962},{"buffer":0,"byteOffset":51132,"byteLength":34088,"byteStride":8,"target":34962},{"buffer":0,"byteOffset":85220,"byteLength":89148,"target":34963}],"buffers":[{"byteLength":174368,"uri":"bird.bin"}]}