{"asset":{"generator":"3D Builder","version":"2.0"},"scene":0,"scenes":[{"nodes":[0,1,2,3,4,5,6,7,8,9,10,11,12,19]}],"nodes":[{"mesh":0,"matrix":[1,0,0,0,0,-1.1920928955078125E-7,-0.99999988079071045,0,0,0.99999988079071045,-1.1920928955078125E-7,0,-0.020015008747577667,-0.0052727474831044674,-0.035446379333734512,1]},{"mesh":1,"matrix":[1,0,0,0,0,-1.1920928955078125E-7,-0.99999988079071045,0,0,0.99999988079071045,-1.1920928955078125E-7,0,-0.020015008747577667,-0.0052727474831044674,-0.035446379333734512,1]},{"mesh":2,"matrix":[1,0,0,0,0,-1.1920928955078125E-7,-0.99999988079071045,0,0,0.99999988079071045,-1.1920928955078125E-7,0,-0.020015008747577667,-0.0052727474831044674,-0.035446379333734512,1]},{"mesh":3,"matrix":[1,0,0,0,0,-1.1920928955078125E-7,-0.99999988079071045,0,0,0.99999988079071045,-1.1920928955078125E-7,0,-0.020015008747577667,-0.0052727474831044674,-0.035446379333734512,1]},{"mesh":4,"matrix":[1,0,0,0,0,-1.1920928955078125E-7,-0.99999988079071045,0,0,0.99999988079071045,-1.1920928955078125E-7,0,-0.020015008747577667,-0.0052727474831044674,-0.035446379333734512,1]},{"mesh":5,"matrix":[1,0,0,0,0,-1.1920928955078125E-7,-0.99999988079071045,0,0,0.99999988079071045,-1.1920928955078125E-7,0,-0.020015008747577667,-0.0052727474831044674,-0.035446379333734512,1]},{"mesh":6,"matrix":[1,0,0,0,0,-1.1920928955078125E-7,-0.99999988079071045,0,0,0.99999988079071045,-1.1920928955078125E-7,0,-0.020015008747577667,-0.0052727474831044674,-0.035446379333734512,1]},{"mesh":7,"matrix":[1,0,0,0,0,-1.1920928955078125E-7,-0.99999988079071045,0,0,0.99999988079071045,-1.1920928955078125E-7,0,-0.020015008747577667,-0.0052727474831044674,-0.035446379333734512,1]},{"mesh":8,"matrix":[1,0,0,0,0,-1.1920928955078125E-7,-0.99999988079071045,0,0,0.99999988079071045,-1.1920928955078125E-7,0,-0.020015008747577667,-0.0052727474831044674,-0.035446379333734512,1]},{"mesh":9,"matrix":[1,0,0,0,0,-1.1920928955078125E-7,-0.99999988079071045,0,0,0.99999988079071045,-1.1920928955078125E-7,0,-0.020015008747577667,-0.0052727474831044674,-0.035446379333734512,1]},{"mesh":10,"matrix":[1,0,0,0,0,-1.1920928955078125E-7,-0.99999988079071045,0,0,0.99999988079071045,-1.1920928955078125E-7,0,-0.020015008747577667,-0.0052727474831044674,-0.035446379333734512,1]},{"mesh":11,"matrix":[1,0,0,0,0,-1.1920928955078125E-7,-0.99999988079071045,0,0,0.99999988079071045,-1.1920928955078125E-7,0,-0.020015008747577667,-0.0052727474831044674,-0.035446379333734512,1]},{"children":[13,14,15,16,17,18]},{"mesh":12,"matrix":[1,0,0,0,0,-1.1920928955078125E-7,-0.99999988079071045,0,0,0.99999988079071045,-1.1920928955078125E-7,0,-0.020015008747577667,-0.0052727474831044674,-0.035446379333734512,1]},{"mesh":13,"matrix":[1,0,0,0,0,-1.1920928955078125E-7,-0.99999988079071045,0,0,0.99999988079071045,-1.1920928955078125E-7,0,-0.020015008747577667,-0.0052727474831044674,-0.035446379333734512,1]},{"mesh":14,"matrix":[1,0,0,0,0,-1.1920928955078125E-7,-0.99999988079071045,0,0,0.99999988079071045,-1.1920928955078125E-7,0,-0.020015008747577667,-0.0052727474831044674,-0.035446379333734512,1]},{"mesh":15,"matrix":[1,0,0,0,0,-1.1920928955078125E-7,-0.99999988079071045,0,0,0.99999988079071045,-1.1920928955078125E-7,0,-0.020015008747577667,-0.0052727474831044674,-0.035446379333734512,1]},{"mesh":16,"matrix":[1,0,0,0,0,-1.1920928955078125E-7,-0.99999988079071045,0,0,0.99999988079071045,-1.1920928955078125E-7,0,-0.020015008747577667,-0.0052727474831044674,-0.035446379333734512,1]},{"mesh":17,"matrix":[1,0,0,0,0,-1.1920928955078125E-7,-0.99999988079071045,0,0,0.99999988079071045,-1.1920928955078125E-7,0,-0.020015008747577667,-0.0052727474831044674,-0.035446379333734512,1]},{"mesh":18,"matrix":[1,0,0,0,0,-1.1920928955078125E-7,-0.99999988079071045,0,0,0.99999988079071045,-1.1920928955078125E-7,0,-0.020015008747577667,-0.0052727474831044674,-0.035446379333734512,1]}],"meshes":[{"primitives":[{"attributes":{"POSITION":0,"TEXCOORD_0":1},"mode":4,"indices":2,"material":0}]},{"primitives":[{"attributes":{"POSITION":3,"TEXCOORD_0":4},"mode":4,"indices":5,"material":1}]},{"primitives":[{"attributes":{"POSITION":6},"mode":4,"indices":7,"material":2}]},{"primitives":[{"attributes":{"POSITION":8,"TEXCOORD_0":9},"mode":4,"indices":10,"material":3}]},{"primitives":[{"attributes":{"POSITION":11,"TEXCOORD_0":12},"mode":4,"indices":13,"material":4}]},{"primitives":[{"attributes":{"POSITION":14,"TEXCOORD_0":15},"mode":4,"indices":16,"material":5}]},{"primitives":[{"attributes":{"POSITION":17,"TEXCOORD_0":18},"mode":4,"indices":19,"material":6}]},{"primitives":[{"attributes":{"POSITION":20,"TEXCOORD_0":21},"mode":4,"indices":22,"material":7}]},{"primitives":[{"attributes":{"POSITION":23,"TEXCOORD_0":24},"mode":4,"indices":25,"material":8}]},{"primitives":[{"attributes":{"POSITION":26,"TEXCOORD_0":27},"mode":4,"indices":28,"material":9}]},{"primitives":[{"attributes":{"POSITION":29,"TEXCOORD_0":30},"mode":4,"indices":31,"material":10}]},{"primitives":[{"attributes":{"POSITION":32,"TEXCOORD_0":33},"mode":4,"indices":34,"material":11}]},{"primitives":[{"attributes":{"POSITION":35,"TEXCOORD_0":36},"mode":4,"indices":37,"material":12}]},{"primitives":[{"attributes":{"POSITION":38,"TEXCOORD_0":39},"mode":4,"indices":40,"material":12}]},{"primitives":[{"attributes":{"POSITION":41,"TEXCOORD_0":42},"mode":4,"indices":43,"material":12}]},{"primitives":[{"attributes":{"POSITION":44,"TEXCOORD_0":45},"mode":4,"indices":46,"material":12}]},{"primitives":[{"attributes":{"POSITION":47,"TEXCOORD_0":48},"mode":4,"indices":49,"material":12}]},{"primitives":[{"attributes":{"POSITION":50,"TEXCOORD_0":51},"mode":4,"indices":52,"material":12}]},{"primitives":[{"attributes":{"POSITION":53,"TEXCOORD_0":54},"mode":4,"indices":55,"material":13}]}],"materials":[{"pbrMetallicRoughness":{"baseColorFactor":[1,1,1,1],"metallicFactor":1,"roughnessFactor":1,"baseColorTexture":{"index":0,"texCoord":0},"metallicRoughnessTexture":{"index":1,"texCoord":0}},"alphaMode":"OPAQUE"},{"pbrMetallicRoughness":{"baseColorFactor":[1,1,1,1],"metallicFactor":1,"roughnessFactor":1,"baseColorTexture":{"index":2,"texCoord":0},"metallicRoughnessTexture":{"index":3,"texCoord":0}},"alphaMode":"OPAQUE"},{"name":"Male_Athletic:male_athletic_bipeds_geo_bipeds_geo_lambert5SG118467","pbrMetallicRoughness":{"baseColorFactor":[0.17846325039863586,0.17846325039863586,0.17846325039863586,1],"metallicFactor":0.57451540231704712,"roughnessFactor":0.81176471710205078},"alphaMode":"OPAQUE"},{"pbrMetallicRoughness":{"baseColorFactor":[1,1,1,1],"metallicFactor":1,"roughnessFactor":1,"baseColorTexture":{"index":4,"texCoord":0},"metallicRoughnessTexture":{"index":5,"texCoord":0}},"alphaMode":"OPAQUE"},{"pbrMetallicRoughness":{"baseColorFactor":[1,1,1,1],"metallicFactor":1,"roughnessFactor":1,"baseColorTexture":{"index":6,"texCoord":0},"metallicRoughnessTexture":{"index":7,"texCoord":0}},"alphaMode":"OPAQUE"},{"pbrMetallicRoughness":{"baseColorFactor":[1,1,1,1],"metallicFactor":1,"roughnessFactor":1,"baseColorTexture":{"index":8,"texCoord":0},"metallicRoughnessTexture":{"index":9,"texCoord":0}},"alphaMode":"OPAQUE"},{"pbrMetallicRoughness":{"baseColorFactor":[1,1,1,1],"metallicFactor":1,"roughnessFactor":1,"baseColorTexture":{"index":10,"texCoord":0},"metallicRoughnessTexture":{"index":11,"texCoord":0}},"alphaMode":"OPAQUE"},{"pbrMetallicRoughness":{"baseColorFactor":[1,1,1,1],"metallicFactor":1,"roughnessFactor":1,"baseColorTexture":{"index":12,"texCoord":0},"metallicRoughnessTexture":{"index":13,"texCoord":0}},"alphaMode":"OPAQUE"},{"pbrMetallicRoughness":{"baseColorFactor":[1,1,1,1],"metallicFactor":1,"roughnessFactor":1,"baseColorTexture":{"index":14,"texCoord":0},"metallicRoughnessTexture":{"index":15,"texCoord":0}},"alphaMode":"OPAQUE"},{"pbrMetallicRoughness":{"baseColorFactor":[1,1,1,1],"metallicFactor":1,"roughnessFactor":1,"baseColorTexture":{"index":16,"texCoord":0},"metallicRoughnessTexture":{"index":17,"texCoord":0}},"alphaMode":"OPAQUE"},{"pbrMetallicRoughness":{"baseColorFactor":[1,1,1,1],"metallicFactor":1,"roughnessFactor":1,"baseColorTexture":{"index":18,"texCoord":0},"metallicRoughnessTexture":{"index":19,"texCoord":0}},"alphaMode":"OPAQUE"},{"pbrMetallicRoughness":{"baseColorFactor":[1,1,1,1],"metallicFactor":1,"roughnessFactor":1,"baseColorTexture":{"index":20,"texCoord":0},"metallicRoughnessTexture":{"index":21,"texCoord":0}},"alphaMode":"OPAQUE"},{"pbrMetallicRoughness":{"baseColorFactor":[1,1,1,1],"metallicFactor":1,"roughnessFactor":1,"baseColorTexture":{"index":22,"texCoord":0},"metallicRoughnessTexture":{"index":23,"texCoord":0}},"alphaMode":"OPAQUE"},{"pbrMetallicRoughness":{"baseColorFactor":[1,1,1,1],"metallicFactor":1,"roughnessFactor":1,"baseColorTexture":{"index":24,"texCoord":0},"metallicRoughnessTexture":{"index":25,"texCoord":0}},"alphaMode":"OPAQUE"}],"textures":[{"source":0,"sampler":0},{"source":1,"sampler":0},{"source":2,"sampler":0},{"source":3,"sampler":0},{"source":4,"sampler":0},{"source":5,"sampler":0},{"source":6,"sampler":0},{"source":7,"sampler":0},{"source":8,"sampler":0},{"source":9,"sampler":0},{"source":10,"sampler":0},{"source":11,"sampler":0},{"source":12,"sampler":0},{"source":13,"sampler":0},{"source":14,"sampler":0},{"source":15,"sampler":0},{"source":16,"sampler":0},{"source":17,"sampler":0},{"source":18,"sampler":0},{"source":19,"sampler":0},{"source":20,"sampler":0},{"source":21,"sampler":0},{"source":22,"sampler":0},{"source":23,"sampler":0},{"source":24,"sampler":0},{"source":25,"sampler":0}],"images":[{"uri":"555321746_512x512_16992012841831460948.png"},{"uri":"573110561_256x256_16359316871965420225.png"},{"uri":"896687540_512x512_6195987693227547908.png"},{"uri":"1890949041_256x256_17319628118832143767.png"},{"uri":"2044473395_128x128_11563080508590297124.png"},{"uri":"2062262210_128x128_12154559721164250551.png"},{"uri":"1873160226_512x512_17026833529806663332.png"},{"uri":"1890949041_256x256_11940874549538703979.png"},{"uri":"4186940894_1024x1024_8121963612834991312.png"},{"uri":"4204729709_256x256_18192182391262551305.png"},{"uri":"3049846560_512x512_5141386857210115320.png"},{"uri":"3067635375_256x256_393141225444649957.png"},{"uri":"3871102081_512x512_3248531525346920784.png"},{"uri":"3888890896_256x256_1715596722928637394.png"},{"uri":"3207778000_256x256_986748299544554708.png"},{"uri":"3225566815_256x256_1760531918079975181.png"},{"uri":"2111609187_1024x1024_9891466195765460252.png"},{"uri":"2129398002_256x256_4658705118030489813.png"},{"uri":"479898725_1024x1024_12834348560372959244.png"},{"uri":"497687540_256x256_17013631623288359057.png"},{"uri":"4025249498_512x512_18323604636780110852.png"},{"uri":"4043038313_256x256_14804940805578051428.png"},{"uri":"2393539036_512x512_9803524147458250760.png"},{"uri":"2411327851_256x256_8573632287443235393.png"},{"uri":"1660658327_512x512_10118520931922161424.png"},{"uri":"1678447142_256x256_11397007776417139733.png"}],"samplers":[{"magFilter":9729,"wrapS":10497,"wrapT":10497}],"accessors":[{"bufferView":0,"byteOffset":0,"count":988,"componentType":5126,"type":"VEC3","min":[-0.33747404813766479,-0.30364468693733215,0.0052727437578141689],"max":[0.2729651927947998,0.0031292669009417295,0.45671385526657104]},{"bufferView":1,"byteOffset":0,"count":988,"componentType":5126,"type":"VEC2"},{"bufferView":2,"byteOffset":0,"count":4086,"componentType":5125,"type":"SCALAR"},{"bufferView":3,"byteOffset":0,"count":736,"componentType":5126,"type":"VEC3","min":[-0.063431955873966217,-0.15134832262992859,1.2154227495193481],"max":[0.095751948654651642,0.025534512475132942,1.425188422203064]},{"bufferView":4,"byteOffset":0,"count":736,"componentType":5126,"type":"VEC2"},{"bufferView":5,"byteOffset":0,"count":3279,"componentType":5125,"type":"SCALAR"},{"bufferView":6,"byteOffset":0,"count":568,"componentType":5126,"type":"VEC3","min":[-0.0042649200186133385,-0.1367914229631424,1.2500022649765015],"max":[0.048065237700939178,-0.075770199298858643,1.2788785696029663]},{"bufferView":7,"byteOffset":0,"count":2880,"componentType":5125,"type":"SCALAR"},{"bufferView":8,"byteOffset":0,"count":442,"componentType":5126,"type":"VEC3","min":[-0.028394510969519615,-0.12911635637283325,1.3131670951843262],"max":[0.064780093729496,-0.10357211530208588,1.3437544107437134]},{"bufferView":9,"byteOffset":0,"count":442,"componentType":5126,"type":"VEC2"},{"bufferView":10,"byteOffset":0,"count":2520,"componentType":5125,"type":"SCALAR"},{"bufferView":11,"byteOffset":0,"count":1219,"componentType":5126,"type":"VEC3","min":[-0.057921800762414932,-0.16208368539810181,1.2167868614196777],"max":[0.090734481811523438,0.022993192076683044,1.43507719039917]},{"bufferView":12,"byteOffset":0,"count":1219,"componentType":5126,"type":"VEC2"},{"bufferView":13,"byteOffset":0,"count":7176,"componentType":5125,"type":"SCALAR"},{"bufferView":14,"byteOffset":0,"count":157,"componentType":5126,"type":"VEC3","min":[-0.028823507949709892,-0.091888546943664551,1.1522132158279419],"max":[0.062447037547826767,0.0028468472883105278,1.2719050645828247]},{"bufferView":15,"byteOffset":0,"count":157,"componentType":5126,"type":"VEC2"},{"bufferView":16,"byteOffset":0,"count":816,"componentType":5125,"type":"SCALAR"},{"bufferView":17,"byteOffset":0,"count":730,"componentType":5126,"type":"VEC3","min":[-0.08995162695646286,-0.19036103785037994,1.2239707708358765],"max":[0.11890103667974472,0.092862404882907867,1.5007908344268799]},{"bufferView":18,"byteOffset":0,"count":730,"componentType":5126,"type":"VEC2"},{"bufferView":19,"byteOffset":0,"count":3282,"componentType":5125,"type":"SCALAR"},{"bufferView":20,"byteOffset":0,"count":825,"componentType":5126,"type":"VEC3","min":[-0.11711975932121277,-0.24033178389072418,1.1994085311889648],"max":[0.14481829106807709,0.094675242900848389,1.5623302459716797]},{"bufferView":21,"byteOffset":0,"count":825,"componentType":5126,"type":"VEC2"},{"bufferView":22,"byteOffset":0,"count":3042,"componentType":5125,"type":"SCALAR"},{"bufferView":23,"byteOffset":0,"count":682,"componentType":5126,"type":"VEC3","min":[-0.28984305262565613,-0.12756647169589996,0.0075364918448030949],"max":[0.22944481670856476,0.13001219928264618,0.33885693550109863]},{"bufferView":24,"byteOffset":0,"count":682,"componentType":5126,"type":"VEC2"},{"bufferView":25,"byteOffset":0,"count":2880,"componentType":5125,"type":"SCALAR"},{"bufferView":26,"byteOffset":0,"count":1986,"componentType":5126,"type":"VEC3","min":[-0.2965371310710907,-0.25190567970275879,0.46097391843795776],"max":[0.30185669660568237,0.15396815538406372,1.36655855178833]},{"bufferView":27,"byteOffset":0,"count":1986,"componentType":5126,"type":"VEC2"},{"bufferView":28,"byteOffset":0,"count":9966,"componentType":5125,"type":"SCALAR"},{"bufferView":29,"byteOffset":0,"count":1737,"componentType":5126,"type":"VEC3","min":[-0.35621777176856995,-0.27470529079437256,0.41159906983375549],"max":[0.39624777436256409,0.23275192081928253,1.3741189241409302]},{"bufferView":30,"byteOffset":0,"count":1737,"componentType":5126,"type":"VEC2"},{"bufferView":31,"byteOffset":0,"count":7215,"componentType":5125,"type":"SCALAR"},{"bufferView":32,"byteOffset":0,"count":2164,"componentType":5126,"type":"VEC3","min":[-0.29411575198173523,-0.11185391247272491,0.521436333656311],"max":[0.30600324273109436,0.10384122282266617,0.883361279964447]},{"bufferView":33,"byteOffset":0,"count":2164,"componentType":5126,"type":"VEC2"},{"bufferView":34,"byteOffset":0,"count":9696,"componentType":5125,"type":"SCALAR"},{"bufferView":35,"byteOffset":0,"count":11,"componentType":5126,"type":"VEC3","min":[-0.3540264368057251,-0.059215936809778214,0.72345948219299316],"max":[-0.31681883335113525,-0.011531373485922813,0.77100455760955811]},{"bufferView":36,"byteOffset":0,"count":11,"componentType":5126,"type":"VEC2"},{"bufferView":37,"byteOffset":0,"count":24,"componentType":5125,"type":"SCALAR"},{"bufferView":38,"byteOffset":0,"count":166,"componentType":5126,"type":"VEC3","min":[-0.34586653113365173,-0.11830107122659683,0.64035522937774658],"max":[-0.22643007338047028,0.071786984801292419,0.94766789674758911]},{"bufferView":39,"byteOffset":0,"count":166,"componentType":5126,"type":"VEC2"},{"bufferView":40,"byteOffset":0,"count":696,"componentType":5125,"type":"SCALAR"},{"bufferView":41,"byteOffset":0,"count":70,"componentType":5126,"type":"VEC3","min":[-0.32298719882965088,-0.10557609051465988,0.66009008884429932],"max":[-0.23762461543083191,0.048328876495361328,0.879033088684082]},{"bufferView":42,"byteOffset":0,"count":70,"componentType":5126,"type":"VEC2"},{"bufferView":43,"byteOffset":0,"count":288,"componentType":5125,"type":"SCALAR"},{"bufferView":44,"byteOffset":0,"count":11,"componentType":5126,"type":"VEC3","min":[0.31468787789344788,-0.0093268202617764473,0.70553284883499146],"max":[0.35214981436729431,0.0382864773273468,0.75324451923370361]},{"bufferView":45,"byteOffset":0,"count":11,"componentType":5126,"type":"VEC2"},{"bufferView":46,"byteOffset":0,"count":24,"componentType":5125,"type":"SCALAR"},{"bufferView":47,"byteOffset":0,"count":166,"componentType":5126,"type":"VEC3","min":[0.22810657322406769,-0.06100122258067131,0.63222837448120117],"max":[0.34617277979850769,0.12737502157688141,0.93013584613800049]},{"bufferView":48,"byteOffset":0,"count":166,"componentType":5126,"type":"VEC2"},{"bufferView":49,"byteOffset":0,"count":696,"componentType":5125,"type":"SCALAR"},{"bufferView":50,"byteOffset":0,"count":70,"componentType":5126,"type":"VEC3","min":[0.23908060789108276,-0.045418586581945419,0.63965922594070435],"max":[0.32295599579811096,0.10307662934064865,0.86188983917236328]},{"bufferView":51,"byteOffset":0,"count":70,"componentType":5126,"type":"VEC2"},{"bufferView":52,"byteOffset":0,"count":288,"componentType":5125,"type":"SCALAR"},{"bufferView":53,"byteOffset":0,"count":340,"componentType":5126,"type":"VEC3","min":[-0.19835451245307922,-0.14586585760116577,0.26626089215278625],"max":[0.1876818984746933,0.058830853551626205,0.84232717752456665]},{"bufferView":54,"byteOffset":0,"count":340,"componentType":5126,"type":"VEC2"},{"bufferView":55,"byteOffset":0,"count":1686,"componentType":5125,"type":"SCALAR"}],"bufferViews":[{"buffer":0,"byteOffset":0,"byteLength":11856,"byteStride":12,"target":34962},{"buffer":0,"byteOffset":11856,"byteLength":7904,"byteStride":8,"target":34962},{"buffer":0,"byteOffset":19760,"byteLength":16344,"target":34963},{"buffer":0,"byteOffset":36104,"byteLength":8832,"byteStride":12,"target":34962},{"buffer":0,"byteOffset":44936,"byteLength":5888,"byteStride":8,"target":34962},{"buffer":0,"byteOffset":50824,"byteLength":13116,"target":34963},{"buffer":0,"byteOffset":63940,"byteLength":6816,"byteStride":12,"target":34962},{"buffer":0,"byteOffset":70756,"byteLength":11520,"target":34963},{"buffer":0,"byteOffset":82276,"byteLength":5304,"byteStride":12,"target":34962},{"buffer":0,"byteOffset":87580,"byteLength":3536,"byteStride":8,"target":34962},{"buffer":0,"byteOffset":91116,"byteLength":10080,"target":34963},{"buffer":0,"byteOffset":101196,"byteLength":14628,"byteStride":12,"target":34962},{"buffer":0,"byteOffset":115824,"byteLength":9752,"byteStride":8,"target":34962},{"buffer":0,"byteOffset":125576,"byteLength":28704,"target":34963},{"buffer":0,"byteOffset":154280,"byteLength":1884,"byteStride":12,"target":34962},{"buffer":0,"byteOffset":156164,"byteLength":1256,"byteStride":8,"target":34962},{"buffer":0,"byteOffset":157420,"byteLength":3264,"target":34963},{"buffer":0,"byteOffset":160684,"byteLength":8760,"byteStride":12,"target":34962},{"buffer":0,"byteOffset":169444,"byteLength":5840,"byteStride":8,"target":34962},{"buffer":0,"byteOffset":175284,"byteLength":13128,"target":34963},{"buffer":0,"byteOffset":188412,"byteLength":9900,"byteStride":12,"target":34962},{"buffer":0,"byteOffset":198312,"byteLength":6600,"byteStride":8,"target":34962},{"buffer":0,"byteOffset":204912,"byteLength":12168,"target":34963},{"buffer":0,"byteOffset":217080,"byteLength":8184,"byteStride":12,"target":34962},{"buffer":0,"byteOffset":225264,"byteLength":5456,"byteStride":8,"target":34962},{"buffer":0,"byteOffset":230720,"byteLength":11520,"target":34963},{"buffer":0,"byteOffset":242240,"byteLength":23832,"byteStride":12,"target":34962},{"buffer":0,"byteOffset":266072,"byteLength":15888,"byteStride":8,"target":34962},{"buffer":0,"byteOffset":281960,"byteLength":39864,"target":34963},{"buffer":0,"byteOffset":321824,"byteLength":20844,"byteStride":12,"target":34962},{"buffer":0,"byteOffset":342668,"byteLength":13896,"byteStride":8,"target":34962},{"buffer":0,"byteOffset":356564,"byteLength":28860,"target":34963},{"buffer":0,"byteOffset":385424,"byteLength":25968,"byteStride":12,"target":34962},{"buffer":0,"byteOffset":411392,"byteLength":17312,"byteStride":8,"target":34962},{"buffer":0,"byteOffset":428704,"byteLength":38784,"target":34963},{"buffer":0,"byteOffset":467488,"byteLength":132,"byteStride":12,"target":34962},{"buffer":0,"byteOffset":467620,"byteLength":88,"byteStride":8,"target":34962},{"buffer":0,"byteOffset":467708,"byteLength":96,"target":34963},{"buffer":0,"byteOffset":467804,"byteLength":1992,"byteStride":12,"target":34962},{"buffer":0,"byteOffset":469796,"byteLength":1328,"byteStride":8,"target":34962},{"buffer":0,"byteOffset":471124,"byteLength":2784,"target":34963},{"buffer":0,"byteOffset":473908,"byteLength":840,"byteStride":12,"target":34962},{"buffer":0,"byteOffset":474748,"byteLength":560,"byteStride":8,"target":34962},{"buffer":0,"byteOffset":475308,"byteLength":1152,"target":34963},{"buffer":0,"byteOffset":476460,"byteLength":132,"byteStride":12,"target":34962},{"buffer":0,"byteOffset":476592,"byteLength":88,"byteStride":8,"target":34962},{"buffer":0,"byteOffset":476680,"byteLength":96,"target":34963},{"buffer":0,"byteOffset":476776,"byteLength":1992,"byteStride":12,"target":34962},{"buffer":0,"byteOffset":478768,"byteLength":1328,"byteStride":8,"target":34962},{"buffer":0,"byteOffset":480096,"byteLength":2784,"target":34963},{"buffer":0,"byteOffset":482880,"byteLength":840,"byteStride":12,"target":34962},{"buffer":0,"byteOffset":483720,"byteLength":560,"byteStride":8,"target":34962},{"buffer":0,"byteOffset":484280,"byteLength":1152,"target":34963},{"buffer":0,"byteOffset":485432,"byteLength":4080,"byteStride":12,"target":34962},{"buffer":0,"byteOffset":489512,"byteLength":2720,"byteStride":8,"target":34962},{"buffer":0,"byteOffset":492232,"byteLength":6744,"target":34963}],"buffers":[{"byteLength":498976,"uri":"Male Haakon 3.bin"}]}