{"asset":{"generator":"3D Builder","version":"2.0"},"scene":0,"scenes":[{"nodes":[0]}],"nodes":[{"mesh":0,"matrix":[1,0,0,0,0,-1.1920928955078125E-7,-0.99999988079071045,0,0,0.99999988079071045,-1.1920928955078125E-7,0,-0.49942222237586975,-0.056054651737213135,2.0761406421661377,1]}],"meshes":[{"primitives":[{"attributes":{"POSITION":0,"TEXCOORD_0":1},"mode":4,"indices":2,"material":0}]}],"materials":[{"pbrMetallicRoughness":{"baseColorFactor":[1,1,1,1],"metallicFactor":1,"roughnessFactor":1,"baseColorTexture":{"index":0,"texCoord":0},"metallicRoughnessTexture":{"index":1,"texCoord":0}},"alphaMode":"OPAQUE"}],"textures":[{"source":0,"sampler":0},{"source":1,"sampler":0}],"images":[{"uri":"texture_1.png"},{"uri":"texture_0_10852638490067281019.png"}],"samplers":[{"magFilter":9729,"wrapS":10497,"wrapT":10497}],"accessors":[{"bufferView":0,"byteOffset":0,"count":12246,"componentType":5126,"type":"VEC3","min":[-46.577960968017578,-1.4397579431533813,0.05605490505695343],"max":[47.576805114746094,5.5920395851135254,9.2510337829589844]},{"bufferView":1,"byteOffset":0,"count":12246,"componentType":5126,"type":"VEC2"},{"bufferView":2,"byteOffset":0,"count":53709,"componentType":5125,"type":"SCALAR"}],"bufferViews":[{"buffer":0,"byteOffset":0,"byteLength":146952,"byteStride":12,"target":34962},{"buffer":0,"byteOffset":146952,"byteLength":97968,"byteStride":8,"target":34962},{"buffer":0,"byteOffset":244920,"byteLength":214836,"target":34963}],"buffers":[{"byteLength":459756,"uri":"Music.bin"}]}