{"asset":{"generator":"3D Builder","version":"2.0"},"scene":0,"scenes":[{"nodes":[0]}],"nodes":[{"mesh":0,"matrix":[1,0,0,0,0,-1.1920928955078125E-7,-0.99999988079071045,0,0,0.99999988079071045,-1.1920928955078125E-7,0,0.00087993050692602992,2.8422455500276556E-9,0.014369294047355652,1]}],"meshes":[{"primitives":[{"attributes":{"POSITION":0,"TEXCOORD_0":1},"mode":4,"indices":2,"material":0}]}],"materials":[{"pbrMetallicRoughness":{"baseColorFactor":[1,1,1,1],"metallicFactor":1,"roughnessFactor":1,"baseColorTexture":{"index":0,"texCoord":0},"metallicRoughnessTexture":{"index":1,"texCoord":0}},"alphaMode":"OPAQUE"}],"textures":[{"source":0,"sampler":0},{"source":1,"sampler":0}],"images":[{"uri":"1350945960_2048x2048_6195987693227547908.png"},{"uri":"568059088_128x128_17319628118832143767.png"}],"samplers":[{"magFilter":9729,"wrapS":10497,"wrapT":10497}],"accessors":[{"bufferView":0,"byteOffset":0,"count":226,"componentType":5126,"type":"VEC3","min":[-0.072182521224021912,-0.0484175980091095,-1.1292922152961182E-9],"max":[0.070422664284706116,0.0771561935544014,0.239282488822937]},{"bufferView":1,"byteOffset":0,"count":226,"componentType":5126,"type":"VEC2"},{"bufferView":2,"byteOffset":0,"count":903,"componentType":5125,"type":"SCALAR"}],"bufferViews":[{"buffer":0,"byteOffset":0,"byteLength":2712,"byteStride":12,"target":34962},{"buffer":0,"byteOffset":2712,"byteLength":1808,"byteStride":8,"target":34962},{"buffer":0,"byteOffset":4520,"byteLength":3612,"target":34963}],"buffers":[{"byteLength":8132,"uri":"Tree.bin"}]}