{"asset":{"generator":"3D Builder","version":"2.0"},"scene":0,"scenes":[{"nodes":[0,1]}],"nodes":[{"mesh":0,"matrix":[0.99999994039535522,0,0,0,0,-1.1920928244535389E-7,-0.99999982118606567,0,0,0.99999982118606567,-1.1920928244535389E-7,0,0.087724082171916962,-4.8368842264778777E-9,-0.024426871910691261,1]},{"mesh":1,"matrix":[0.25025549530982971,0,0,0,0,-2.9832779802063669E-8,-0.25025546550750732,0,0,0.23987925052642822,-2.8595838585943056E-8,0,0.087716571986675262,-2.2019641665593781E-9,-0.024424534291028976,1]}],"meshes":[{"primitives":[{"attributes":{"POSITION":0,"COLOR_0":29},"mode":4,"indices":30},{"attributes":{"POSITION":1,"TEXCOORD_0":15},"mode":4,"indices":31,"material":0},{"attributes":{"POSITION":2,"TEXCOORD_0":16},"mode":4,"indices":32,"material":0},{"attributes":{"POSITION":3,"TEXCOORD_0":17},"mode":4,"indices":33,"material":0},{"attributes":{"POSITION":4,"TEXCOORD_0":18},"mode":4,"indices":34,"material":0},{"attributes":{"POSITION":5,"TEXCOORD_0":19},"mode":4,"indices":35,"material":0},{"attributes":{"POSITION":6,"TEXCOORD_0":20},"mode":4,"indices":36,"material":0},{"attributes":{"POSITION":7,"TEXCOORD_0":21},"mode":4,"indices":37,"material":0},{"attributes":{"POSITION":8,"TEXCOORD_0":22},"mode":4,"indices":38,"material":0},{"attributes":{"POSITION":9,"TEXCOORD_0":23},"mode":4,"indices":39,"material":1},{"attributes":{"POSITION":10,"TEXCOORD_0":24},"mode":4,"indices":40,"material":1},{"attributes":{"POSITION":11,"TEXCOORD_0":25},"mode":4,"indices":41,"material":1},{"attributes":{"POSITION":12,"TEXCOORD_0":26},"mode":4,"indices":42,"material":1},{"attributes":{"POSITION":13,"TEXCOORD_0":27},"mode":4,"indices":43,"material":1},{"attributes":{"POSITION":14,"TEXCOORD_0":28},"mode":4,"indices":44,"material":1}]},{"primitives":[{"attributes":{"POSITION":45},"mode":4,"indices":54,"material":2},{"attributes":{"POSITION":46,"TEXCOORD_0":50},"mode":4,"indices":55,"material":3},{"attributes":{"POSITION":47,"TEXCOORD_0":51},"mode":4,"indices":56,"material":3},{"attributes":{"POSITION":48,"TEXCOORD_0":52},"mode":4,"indices":57,"material":3},{"attributes":{"POSITION":49,"TEXCOORD_0":53},"mode":4,"indices":58,"material":3}]}],"materials":[{"pbrMetallicRoughness":{"baseColorFactor":[1,1,1,1],"metallicFactor":0,"roughnessFactor":1,"baseColorTexture":{"index":0,"texCoord":0}},"alphaMode":"OPAQUE"},{"pbrMetallicRoughness":{"baseColorFactor":[1,1,1,1],"metallicFactor":0,"roughnessFactor":1,"baseColorTexture":{"index":1,"texCoord":0}},"alphaMode":"OPAQUE"},{"name":"Orange_1_0","pbrMetallicRoughness":{"baseColorFactor":[1,0.21223072707653046,0.018500218167901039,1],"metallicFactor":0,"roughnessFactor":0.498039186000824},"alphaMode":"OPAQUE"},{"pbrMetallicRoughness":{"baseColorFactor":[1,1,1,1],"metallicFactor":0,"roughnessFactor":1,"baseColorTexture":{"index":2,"texCoord":0}},"alphaMode":"OPAQUE"}],"textures":[{"source":0,"sampler":0},{"source":1,"sampler":0},{"source":2,"sampler":0}],"images":[{"uri":"papyrus.jpg"},{"uri":"medwood.jpg"},{"uri":"heart.png"}],"samplers":[{"magFilter":9729,"wrapS":10497,"wrapT":10497}],"accessors":[{"bufferView":0,"byteOffset":0,"count":2522,"componentType":5126,"type":"VEC3","min":[-0.047164302319288254,-0.049968603998422623,1.9265502526621958E-9],"max":[0.047163300216197968,0.049968499690294266,0.11799900978803635]},{"bufferView":0,"byteOffset":30264,"count":34,"componentType":5126,"type":"VEC3","min":[0.011321000754833221,-0.03661220520734787,0.067427203059196472],"max":[0.027691800147294998,-0.021513001993298531,0.083250299096107483]},{"bufferView":0,"byteOffset":30672,"count":30,"componentType":5126,"type":"VEC3","min":[0.0099076209589838982,-0.023165801540017128,0.068099409341812134],"max":[0.047163300216197968,-0.0039356802590191364,0.11799900978803635]},{"bufferView":0,"byteOffset":31032,"count":109,"componentType":5126,"type":"VEC3","min":[-0.0089280307292938232,-0.047773800790309906,0.026902301236987114],"max":[0.0014119400875642896,-0.002765510231256485,0.10808999836444855]},{"bufferView":0,"byteOffset":32340,"count":66,"componentType":5126,"type":"VEC3","min":[-0.00041320902528241277,-0.00037155303289182484,0.064705707132816315],"max":[0.0053955004550516605,0.030818801373243332,0.10317900776863098]},{"bufferView":0,"byteOffset":33132,"count":41,"componentType":5126,"type":"VEC3","min":[-0.047164302319288254,-0.003089170204475522,0.043386101722717285],"max":[-0.0038317700382322073,0.014197099953889847,0.11446200311183929]},{"bufferView":0,"byteOffset":33624,"count":75,"componentType":5126,"type":"VEC3","min":[-0.017132600769400597,0.00095566402887925506,0.023784402757883072],"max":[-0.00274587026797235,0.049968499690294266,0.094205006957054138]},{"bufferView":0,"byteOffset":34524,"count":18,"componentType":5126,"type":"VEC3","min":[0.00500289024785161,0.00802643969655037,0.0717650055885315],"max":[0.017941700294613838,0.028394199907779694,0.085004605352878571]},{"bufferView":0,"byteOffset":34740,"count":94,"componentType":5126,"type":"VEC3","min":[-0.0010892599821090698,-0.015715800225734711,2.3535999815749165E-9],"max":[0.019604099914431572,0.000919268059078604,0.049482103437185287]},{"bufferView":0,"byteOffset":35868,"count":8,"componentType":5126,"type":"VEC3","min":[-0.010396900586783886,-0.0030948999337852,0.0082371197640895844],"max":[-0.0048927702009677887,0.00045006704749539495,0.022227400913834572]},{"bufferView":0,"byteOffset":35964,"count":57,"componentType":5126,"type":"VEC3","min":[-0.005787150003015995,-0.011155799962580204,0.048790700733661652],"max":[0.0027180900797247887,-0.00042709702393040061,0.082015000283718109]},{"bufferView":0,"byteOffset":36648,"count":54,"componentType":5126,"type":"VEC3","min":[0.010300201363861561,-0.023401400074362755,0.067427203059196472],"max":[0.033471804112195969,-0.020362000912427902,0.098952703177928925]},{"bufferView":0,"byteOffset":37296,"count":67,"componentType":5126,"type":"VEC3","min":[-0.038423500955104828,-0.0039337603375315666,0.039563503116369247],"max":[-0.0031480502802878618,0.0021219800692051649,0.10267400741577148]},{"bufferView":0,"byteOffset":38100,"count":36,"componentType":5126,"type":"VEC3","min":[0.0047290204092860222,0.0075419005006551743,0.071920201182365417],"max":[0.017941700294613838,0.028394199907779694,0.085004605352878571]},{"bufferView":0,"byteOffset":38532,"count":76,"componentType":5126,"type":"VEC3","min":[-0.022021999582648277,-0.015715800225734711,2.3926400860574404E-9],"max":[2.3841901111154584E-6,0.00092118204338476062,0.029202401638031006]},{"bufferView":1,"byteOffset":0,"count":34,"componentType":5126,"type":"VEC2"},{"bufferView":1,"byteOffset":272,"count":30,"componentType":5126,"type":"VEC2"},{"bufferView":1,"byteOffset":512,"count":109,"componentType":5126,"type":"VEC2"},{"bufferView":1,"byteOffset":1384,"count":66,"componentType":5126,"type":"VEC2"},{"bufferView":1,"byteOffset":1912,"count":41,"componentType":5126,"type":"VEC2"},{"bufferView":1,"byteOffset":2240,"count":75,"componentType":5126,"type":"VEC2"},{"bufferView":1,"byteOffset":2840,"count":18,"componentType":5126,"type":"VEC2"},{"bufferView":1,"byteOffset":2984,"count":94,"componentType":5126,"type":"VEC2"},{"bufferView":1,"byteOffset":3736,"count":8,"componentType":5126,"type":"VEC2"},{"bufferView":1,"byteOffset":3800,"count":57,"componentType":5126,"type":"VEC2"},{"bufferView":1,"byteOffset":4256,"count":54,"componentType":5126,"type":"VEC2"},{"bufferView":1,"byteOffset":4688,"count":67,"componentType":5126,"type":"VEC2"},{"bufferView":1,"byteOffset":5224,"count":36,"componentType":5126,"type":"VEC2"},{"bufferView":1,"byteOffset":5512,"count":76,"componentType":5126,"type":"VEC2"},{"bufferView":2,"byteOffset":0,"count":2522,"componentType":5121,"type":"VEC4","normalized":true},{"bufferView":3,"byteOffset":0,"count":14148,"componentType":5125,"type":"SCALAR"},{"bufferView":3,"byteOffset":56592,"count":141,"componentType":5125,"type":"SCALAR"},{"bufferView":3,"byteOffset":57156,"count":87,"componentType":5125,"type":"SCALAR"},{"bufferView":3,"byteOffset":57504,"count":513,"componentType":5125,"type":"SCALAR"},{"bufferView":3,"byteOffset":59556,"count":294,"componentType":5125,"type":"SCALAR"},{"bufferView":3,"byteOffset":60732,"count":132,"componentType":5125,"type":"SCALAR"},{"bufferView":3,"byteOffset":61260,"count":342,"componentType":5125,"type":"SCALAR"},{"bufferView":3,"byteOffset":62628,"count":42,"componentType":5125,"type":"SCALAR"},{"bufferView":3,"byteOffset":62796,"count":414,"componentType":5125,"type":"SCALAR"},{"bufferView":3,"byteOffset":64452,"count":12,"componentType":5125,"type":"SCALAR"},{"bufferView":3,"byteOffset":64500,"count":222,"componentType":5125,"type":"SCALAR"},{"bufferView":3,"byteOffset":65388,"count":210,"componentType":5125,"type":"SCALAR"},{"bufferView":3,"byteOffset":66228,"count":291,"componentType":5125,"type":"SCALAR"},{"bufferView":3,"byteOffset":67392,"count":144,"componentType":5125,"type":"SCALAR"},{"bufferView":3,"byteOffset":67968,"count":336,"componentType":5125,"type":"SCALAR"},{"bufferView":4,"byteOffset":0,"count":826,"componentType":5126,"type":"VEC3","min":[-0.058027520775794983,-0.058706037700176239,-2.4969040168798529E-9],"max":[0.058083713054656982,0.058724306523799896,0.11799918115139008]},{"bufferView":4,"byteOffset":9912,"count":15,"componentType":5126,"type":"VEC3","min":[0.003756105899810791,-0.055592402815818787,0.061304926872253418],"max":[0.038366213440895081,-0.023373007774353027,0.091609515249729156]},{"bufferView":4,"byteOffset":10092,"count":15,"componentType":5126,"type":"VEC3","min":[-0.040213100612163544,-0.055755309760570526,0.061305169016122818],"max":[-0.00745101273059845,-0.024058733135461807,0.09161008894443512]},{"bufferView":4,"byteOffset":10272,"count":12,"componentType":5126,"type":"VEC3","min":[-0.011159345507621765,-0.058706037700176239,0.036159578710794449],"max":[-0.0016264915466308594,-0.045314114540815353,0.078293710947036743]},{"bufferView":4,"byteOffset":10416,"count":16,"componentType":5126,"type":"VEC3","min":[-0.0018486529588699341,-0.058532968163490295,0.036159425973892212],"max":[0.0079087913036346436,-0.03199496865272522,0.091609619557857513]},{"bufferView":5,"byteOffset":0,"count":15,"componentType":5126,"type":"VEC2"},{"bufferView":5,"byteOffset":120,"count":15,"componentType":5126,"type":"VEC2"},{"bufferView":5,"byteOffset":240,"count":12,"componentType":5126,"type":"VEC2"},{"bufferView":5,"byteOffset":336,"count":16,"componentType":5126,"type":"VEC2"},{"bufferView":6,"byteOffset":0,"count":4848,"componentType":5125,"type":"SCALAR"},{"bufferView":6,"byteOffset":19392,"count":42,"componentType":5125,"type":"SCALAR"},{"bufferView":6,"byteOffset":19560,"count":42,"componentType":5125,"type":"SCALAR"},{"bufferView":6,"byteOffset":19728,"count":30,"componentType":5125,"type":"SCALAR"},{"bufferView":6,"byteOffset":19848,"count":42,"componentType":5125,"type":"SCALAR"}],"bufferViews":[{"buffer":0,"byteOffset":0,"byteLength":39444,"byteStride":12,"target":34962},{"buffer":0,"byteOffset":39444,"byteLength":6120,"byteStride":8,"target":34962},{"buffer":0,"byteOffset":45564,"byteLength":10088,"byteStride":4,"target":34962},{"buffer":0,"byteOffset":55652,"byteLength":69312,"target":34963},{"buffer":0,"byteOffset":124964,"byteLength":10608,"byteStride":12,"target":34962},{"buffer":0,"byteOffset":135572,"byteLength":464,"byteStride":8,"target":34962},{"buffer":0,"byteOffset":136036,"byteLength":20016,"target":34963}],"buffers":[{"byteLength":156052,"uri":"bundeva i drvo.bin"}]}