{"asset":{"generator":"3D Builder","version":"2.0"},"scene":0,"scenes":[{"nodes":[0,1,2,3,4,5,6,7,8,9,10,11,12,13,14,15,16,17,18,19,20]}],"nodes":[{"mesh":0,"matrix":[0.99999994039535522,0,0,0,0,-1.1920928244535389E-7,-0.99999982118606567,0,0,0.99999982118606567,-1.1920928244535389E-7,0,0.00012662200606428087,0.043152496218681335,0.0011435947380959988,1]},{"mesh":1,"matrix":[0.99999994039535522,0,0,0,0,-1.1920928244535389E-7,-0.99999982118606567,0,0,0.99999982118606567,-1.1920928244535389E-7,0,0.00012662200606428087,0.043152496218681335,0.0011435947380959988,1]},{"mesh":2,"matrix":[0.99999994039535522,0,0,0,0,-1.1920928244535389E-7,-0.99999982118606567,0,0,0.99999982118606567,-1.1920928244535389E-7,0,0.00012662200606428087,0.043152496218681335,0.0011435947380959988,1]},{"mesh":3,"matrix":[0.99999994039535522,0,0,0,0,-1.1920928244535389E-7,-0.99999982118606567,0,0,0.99999982118606567,-1.1920928244535389E-7,0,0.00012662200606428087,0.043152496218681335,0.0011435947380959988,1]},{"mesh":4,"matrix":[0.99999994039535522,0,0,0,0,-1.1920928244535389E-7,-0.99999982118606567,0,0,0.99999982118606567,-1.1920928244535389E-7,0,0.00012662200606428087,0.043152496218681335,0.0011435947380959988,1]},{"mesh":5,"matrix":[0.99999994039535522,0,0,0,0,-1.1920928244535389E-7,-0.99999982118606567,0,0,0.99999982118606567,-1.1920928244535389E-7,0,0.00012662200606428087,0.043152496218681335,0.0011435947380959988,1]},{"mesh":6,"matrix":[0.99999994039535522,0,0,0,0,-1.1920928244535389E-7,-0.99999982118606567,0,0,0.99999982118606567,-1.1920928244535389E-7,0,0.00012662200606428087,0.043152496218681335,0.0011435947380959988,1]},{"mesh":7,"matrix":[0.99999994039535522,0,0,0,0,-1.1920928244535389E-7,-0.99999982118606567,0,0,0.99999982118606567,-1.1920928244535389E-7,0,0.00012662200606428087,0.043152496218681335,0.0011435947380959988,1]},{"mesh":8,"matrix":[0.99999994039535522,0,0,0,0,-1.1920928244535389E-7,-0.99999982118606567,0,0,0.99999982118606567,-1.1920928244535389E-7,0,0.00012662200606428087,0.043152496218681335,0.0011435947380959988,1]},{"mesh":9,"matrix":[0.99999994039535522,0,0,0,0,-1.1920928244535389E-7,-0.99999982118606567,0,0,0.99999982118606567,-1.1920928244535389E-7,0,0.00012662200606428087,0.043152496218681335,0.0011435947380959988,1]},{"mesh":10,"matrix":[0.99999994039535522,0,0,0,0,-1.1920928244535389E-7,-0.99999982118606567,0,0,0.99999982118606567,-1.1920928244535389E-7,0,0.00012662200606428087,0.043152496218681335,0.0011435947380959988,1]},{"mesh":11,"matrix":[0.99999994039535522,0,0,0,0,-1.1920928244535389E-7,-0.99999982118606567,0,0,0.99999982118606567,-1.1920928244535389E-7,0,0.00012662200606428087,0.043152496218681335,0.0011435947380959988,1]},{"mesh":12,"matrix":[0.99999994039535522,0,0,0,0,-1.1920928244535389E-7,-0.99999982118606567,0,0,0.99999982118606567,-1.1920928244535389E-7,0,0.00012662200606428087,0.043152496218681335,0.0011435947380959988,1]},{"mesh":13,"matrix":[0.99999994039535522,0,0,0,0,-1.1920928244535389E-7,-0.99999982118606567,0,0,0.99999982118606567,-1.1920928244535389E-7,0,0.00012662200606428087,0.043152496218681335,0.0011435947380959988,1]},{"mesh":14,"matrix":[0.99999994039535522,0,0,0,0,-1.1920928244535389E-7,-0.99999982118606567,0,0,0.99999982118606567,-1.1920928244535389E-7,0,0.00012662200606428087,0.043152496218681335,0.0011435947380959988,1]},{"mesh":15,"matrix":[0.99999994039535522,0,0,0,0,-1.1920928244535389E-7,-0.99999982118606567,0,0,0.99999982118606567,-1.1920928244535389E-7,0,0.00012662200606428087,0.043152496218681335,0.0011435947380959988,1]},{"mesh":16,"matrix":[0.99999994039535522,0,0,0,0,-1.1920928244535389E-7,-0.99999982118606567,0,0,0.99999982118606567,-1.1920928244535389E-7,0,0.00012662200606428087,0.043152496218681335,0.0011435947380959988,1]},{"mesh":17,"matrix":[0.99999994039535522,0,0,0,0,-1.1920928244535389E-7,-0.99999982118606567,0,0,0.99999982118606567,-1.1920928244535389E-7,0,0.00012662200606428087,0.043152496218681335,0.0011435947380959988,1]},{"mesh":18,"matrix":[0.99999994039535522,0,0,0,0,-1.1920928244535389E-7,-0.99999982118606567,0,0,0.99999982118606567,-1.1920928244535389E-7,0,0.0002222889888798818,0.043152496218681335,0.00073125777998939157,1]},{"mesh":19,"matrix":[0.99999994039535522,0,0,0,0,-1.1920928244535389E-7,-0.99999982118606567,0,0,0.99999982118606567,-1.1920928244535389E-7,0,0.00012662200606428087,0.043152496218681335,0.0011435947380959988,1]},{"mesh":20,"matrix":[-0.58897304534912109,0.0629456639289856,-0.19851797819137573,0,-0.12267599254846573,-0.58608496189117432,0.17811805009841919,0,-0.16829098761081696,0.20690500736236572,0.56489795446395874,0,0.00204353011213243,0.08205869048833847,0.0037656796630471945,1]}],"meshes":[{"primitives":[{"attributes":{"POSITION":0,"TEXCOORD_0":1},"mode":4,"indices":2,"material":0}]},{"primitives":[{"attributes":{"POSITION":3,"TEXCOORD_0":4},"mode":4,"indices":5,"material":0}]},{"primitives":[{"attributes":{"POSITION":6,"TEXCOORD_0":7},"mode":4,"indices":8,"material":0}]},{"primitives":[{"attributes":{"POSITION":9,"TEXCOORD_0":10},"mode":4,"indices":11,"material":0}]},{"primitives":[{"attributes":{"POSITION":12,"TEXCOORD_0":13},"mode":4,"indices":14,"material":0}]},{"primitives":[{"attributes":{"POSITION":15,"TEXCOORD_0":16},"mode":4,"indices":17,"material":0}]},{"primitives":[{"attributes":{"POSITION":18,"TEXCOORD_0":19},"mode":4,"indices":20,"material":0}]},{"primitives":[{"attributes":{"POSITION":21,"TEXCOORD_0":22},"mode":4,"indices":23,"material":0}]},{"primitives":[{"attributes":{"POSITION":24,"TEXCOORD_0":25},"mode":4,"indices":26,"material":0}]},{"primitives":[{"attributes":{"POSITION":27,"TEXCOORD_0":28},"mode":4,"indices":29,"material":0}]},{"primitives":[{"attributes":{"POSITION":30,"TEXCOORD_0":31},"mode":4,"indices":32,"material":0}]},{"primitives":[{"attributes":{"POSITION":33,"TEXCOORD_0":34},"mode":4,"indices":35,"material":0}]},{"primitives":[{"attributes":{"POSITION":36,"TEXCOORD_0":37},"mode":4,"indices":38,"material":0}]},{"primitives":[{"attributes":{"POSITION":39,"TEXCOORD_0":40},"mode":4,"indices":41,"material":0}]},{"primitives":[{"attributes":{"POSITION":42,"TEXCOORD_0":43},"mode":4,"indices":44,"material":0}]},{"primitives":[{"attributes":{"POSITION":45,"TEXCOORD_0":46},"mode":4,"indices":47,"material":0}]},{"primitives":[{"attributes":{"POSITION":48,"TEXCOORD_0":49},"mode":4,"indices":50,"material":0}]},{"primitives":[{"attributes":{"POSITION":51,"TEXCOORD_0":52},"mode":4,"indices":53,"material":0}]},{"primitives":[{"attributes":{"POSITION":54,"TEXCOORD_0":56},"mode":4,"indices":58,"material":0},{"attributes":{"POSITION":55,"COLOR_0":57},"mode":4,"indices":59}]},{"primitives":[{"attributes":{"POSITION":60,"TEXCOORD_0":61},"mode":4,"indices":62,"material":0}]},{"primitives":[{"attributes":{"POSITION":63,"TEXCOORD_0":70},"mode":4,"indices":77,"material":1},{"attributes":{"POSITION":64,"TEXCOORD_0":71},"mode":4,"indices":78,"material":1},{"attributes":{"POSITION":65,"TEXCOORD_0":72},"mode":4,"indices":79,"material":1},{"attributes":{"POSITION":66,"TEXCOORD_0":73},"mode":4,"indices":80,"material":1},{"attributes":{"POSITION":67,"COLOR_0":76},"mode":4,"indices":81},{"attributes":{"POSITION":68,"TEXCOORD_0":74},"mode":4,"indices":82,"material":1},{"attributes":{"POSITION":69,"TEXCOORD_0":75},"mode":4,"indices":83,"material":1}]}],"materials":[{"pbrMetallicRoughness":{"baseColorFactor":[1,1,1,1],"metallicFactor":1,"roughnessFactor":1,"baseColorTexture":{"index":0,"texCoord":0},"metallicRoughnessTexture":{"index":1,"texCoord":0}},"alphaMode":"OPAQUE"},{"pbrMetallicRoughness":{"baseColorFactor":[1,1,1,1],"metallicFactor":1,"roughnessFactor":1,"baseColorTexture":{"index":2,"texCoord":0},"metallicRoughnessTexture":{"index":3,"texCoord":0}},"alphaMode":"OPAQUE"}],"textures":[{"source":0,"sampler":0},{"source":1,"sampler":0},{"source":2,"sampler":0},{"source":3,"sampler":0}],"images":[{"uri":"1631497762_1024x1024_5628616909738884392.png"},{"uri":"954699739_128x128_12236992708396575405.png"},{"uri":"1437098470_2048x2048_6195987693227547908.png"},{"uri":"654211598_1024x1024_17319628118832143767.png"}],"samplers":[{"magFilter":9729,"wrapS":10497,"wrapT":10497}],"accessors":[{"bufferView":0,"byteOffset":0,"count":78,"componentType":5126,"type":"VEC3","min":[-0.01314180064946413,-0.0048335203900933266,0.034604500979185104],"max":[-0.010912599973380566,-0.0036932199727743864,0.036097999662160873]},{"bufferView":1,"byteOffset":0,"count":78,"componentType":5126,"type":"VEC2"},{"bufferView":2,"byteOffset":0,"count":210,"componentType":5125,"type":"SCALAR"},{"bufferView":3,"byteOffset":0,"count":204,"componentType":5126,"type":"VEC3","min":[-0.021736100316047668,-0.0038293402176350355,0.024854701012372971],"max":[-0.014352801255881786,0.0016505200183019042,0.0370509997010231]},{"bufferView":4,"byteOffset":0,"count":204,"componentType":5126,"type":"VEC2"},{"bufferView":5,"byteOffset":0,"count":792,"componentType":5125,"type":"SCALAR"},{"bufferView":6,"byteOffset":0,"count":323,"componentType":5126,"type":"VEC3","min":[-0.015867501497268677,-0.0059070703573524952,0.034730400890111923],"max":[-0.010797400958836079,-0.0012696400517597795,0.038178201764822006]},{"bufferView":7,"byteOffset":0,"count":323,"componentType":5126,"type":"VEC2"},{"bufferView":8,"byteOffset":0,"count":1134,"componentType":5125,"type":"SCALAR"},{"bufferView":9,"byteOffset":0,"count":219,"componentType":5126,"type":"VEC3","min":[-0.020798401907086372,-0.0047567002475261688,0.023299500346183777],"max":[-0.0057147699408233166,0.0018536500865593553,0.029683101922273636]},{"bufferView":10,"byteOffset":0,"count":219,"componentType":5126,"type":"VEC2"},{"bufferView":11,"byteOffset":0,"count":828,"componentType":5125,"type":"SCALAR"},{"bufferView":12,"byteOffset":0,"count":176,"componentType":5126,"type":"VEC3","min":[-0.010883400216698647,-0.0015558501472696662,-0.042801499366760254],"max":[-0.0038192600477486849,0.0096814809367060661,-0.03610900416970253]},{"bufferView":13,"byteOffset":0,"count":176,"componentType":5126,"type":"VEC2"},{"bufferView":14,"byteOffset":0,"count":510,"componentType":5125,"type":"SCALAR"},{"bufferView":15,"byteOffset":0,"count":202,"componentType":5126,"type":"VEC3","min":[-0.0077904704958200455,-0.0031159301288425922,-0.040267899632453918],"max":[-0.0013183100381866097,0.0028147201519459486,-0.01568480022251606]},{"bufferView":16,"byteOffset":0,"count":202,"componentType":5126,"type":"VEC2"},{"bufferView":17,"byteOffset":0,"count":774,"componentType":5125,"type":"SCALAR"},{"bufferView":18,"byteOffset":0,"count":242,"componentType":5126,"type":"VEC3","min":[-0.0080986209213733673,-0.0039015102665871382,-0.021047400310635567],"max":[0.0005316990427672863,0.004832050297409296,0.0094262408092617989]},{"bufferView":19,"byteOffset":0,"count":242,"componentType":5126,"type":"VEC2"},{"bufferView":20,"byteOffset":0,"count":942,"componentType":5125,"type":"SCALAR"},{"bufferView":21,"byteOffset":0,"count":65,"componentType":5126,"type":"VEC3","min":[-0.011928500607609749,-0.0051194801926612854,0.034733802080154419],"max":[-0.010658000595867634,-0.0039991401135921478,0.03708760067820549]},{"bufferView":22,"byteOffset":0,"count":65,"componentType":5126,"type":"VEC2"},{"bufferView":23,"byteOffset":0,"count":180,"componentType":5125,"type":"SCALAR"},{"bufferView":24,"byteOffset":0,"count":435,"componentType":5126,"type":"VEC3","min":[-0.012859400361776352,-0.0042932801879942417,0.03461100161075592],"max":[-0.010135000571608543,-0.0014644000912085176,0.037452302873134613]},{"bufferView":25,"byteOffset":0,"count":435,"componentType":5126,"type":"VEC2"},{"bufferView":26,"byteOffset":0,"count":1350,"componentType":5125,"type":"SCALAR"},{"bufferView":27,"byteOffset":0,"count":204,"componentType":5126,"type":"VEC3","min":[0.01452150009572506,-0.0037687802687287331,0.025011900812387466],"max":[0.0214828010648489,0.0015837601386010647,0.036890402436256409]},{"bufferView":28,"byteOffset":0,"count":204,"componentType":5126,"type":"VEC2"},{"bufferView":29,"byteOffset":0,"count":792,"componentType":5125,"type":"SCALAR"},{"bufferView":30,"byteOffset":0,"count":358,"componentType":5126,"type":"VEC3","min":[0.010342700406908989,-0.0043435003608465195,0.0343439020216465],"max":[0.0160652007907629,-0.00023075701028574258,0.037987500429153442]},{"bufferView":31,"byteOffset":0,"count":358,"componentType":5126,"type":"VEC2"},{"bufferView":32,"byteOffset":0,"count":1296,"componentType":5125,"type":"SCALAR"},{"bufferView":33,"byteOffset":0,"count":495,"componentType":5126,"type":"VEC3","min":[0.010180500335991383,-0.0028848201036453247,0.034537501633167267],"max":[0.013101500459015369,7.276890301000094E-6,0.037583302706480026]},{"bufferView":34,"byteOffset":0,"count":495,"componentType":5126,"type":"VEC2"},{"bufferView":35,"byteOffset":0,"count":1596,"componentType":5125,"type":"SCALAR"},{"bufferView":36,"byteOffset":0,"count":89,"componentType":5126,"type":"VEC3","min":[0.01048670057207346,-0.0032202701549977064,0.034607000648975372],"max":[0.012826899997889996,-0.0022657499648630619,0.035913702100515366]},{"bufferView":37,"byteOffset":0,"count":89,"componentType":5126,"type":"VEC2"},{"bufferView":38,"byteOffset":0,"count":246,"componentType":5125,"type":"SCALAR"},{"bufferView":39,"byteOffset":0,"count":75,"componentType":5126,"type":"VEC3","min":[0.010419400408864021,-0.0038087801076471806,0.034752801060676575],"max":[0.011544200591742992,-0.0023335099685937166,0.036965802311897278]},{"bufferView":40,"byteOffset":0,"count":75,"componentType":5126,"type":"VEC2"},{"bufferView":41,"byteOffset":0,"count":216,"componentType":5125,"type":"SCALAR"},{"bufferView":42,"byteOffset":0,"count":240,"componentType":5126,"type":"VEC3","min":[-0.0006457790732383728,-0.0037449703086167574,-0.020843701437115669],"max":[0.0077766804024577141,0.0049397205002605915,0.0095545398071408272]},{"bufferView":43,"byteOffset":0,"count":240,"componentType":5126,"type":"VEC2"},{"bufferView":44,"byteOffset":0,"count":942,"componentType":5125,"type":"SCALAR"},{"bufferView":45,"byteOffset":0,"count":199,"componentType":5126,"type":"VEC3","min":[-5.60335029149428E-5,-0.0033303401432931423,-0.041116904467344284],"max":[0.0058940802700817585,0.0026280402671545744,-0.016487801447510719]},{"bufferView":46,"byteOffset":0,"count":199,"componentType":5126,"type":"VEC2"},{"bufferView":47,"byteOffset":0,"count":774,"componentType":5125,"type":"SCALAR"},{"bufferView":48,"byteOffset":0,"count":173,"componentType":5126,"type":"VEC3","min":[0.0019229601603001356,-0.0012403500732034445,-0.043152503669261932],"max":[0.0096084205433726311,0.00966734066605568,-0.036426801234483719]},{"bufferView":49,"byteOffset":0,"count":173,"componentType":5126,"type":"VEC2"},{"bufferView":50,"byteOffset":0,"count":510,"componentType":5125,"type":"SCALAR"},{"bufferView":51,"byteOffset":0,"count":219,"componentType":5126,"type":"VEC3","min":[0.0055323503911495209,-0.0045056603848934174,0.023230401799082756],"max":[0.021159902215003967,0.0016961500514298677,0.029749901965260506]},{"bufferView":52,"byteOffset":0,"count":219,"componentType":5126,"type":"VEC2"},{"bufferView":53,"byteOffset":0,"count":828,"componentType":5125,"type":"SCALAR"},{"bufferView":54,"byteOffset":0,"count":361,"componentType":5126,"type":"VEC3","min":[-0.010650200769305229,-0.007394290529191494,0.010199300013482571],"max":[0.010458900593221188,0.0082238204777240753,0.037704803049564362]},{"bufferView":54,"byteOffset":4332,"count":54,"componentType":5126,"type":"VEC3","min":[-0.0034364601597189903,-0.0055383001454174519,0.020711902529001236],"max":[0.010458900593221188,0.0078670307993888855,0.035363998264074326]},{"bufferView":55,"byteOffset":0,"count":361,"componentType":5126,"type":"VEC2"},{"bufferView":56,"byteOffset":0,"count":54,"componentType":5121,"type":"VEC4","normalized":true},{"bufferView":57,"byteOffset":0,"count":1164,"componentType":5125,"type":"SCALAR"},{"bufferView":57,"byteOffset":4656,"count":168,"componentType":5125,"type":"SCALAR"},{"bufferView":58,"byteOffset":0,"count":214,"componentType":5126,"type":"VEC3","min":[-0.0066675101406872272,-0.004564099945127964,0.0017267400398850441],"max":[0.0066675404086709023,0.0062041003257036209,0.011593200266361237]},{"bufferView":59,"byteOffset":0,"count":214,"componentType":5126,"type":"VEC2"},{"bufferView":60,"byteOffset":0,"count":654,"componentType":5125,"type":"SCALAR"},{"bufferView":61,"byteOffset":0,"count":6873,"componentType":5126,"type":"VEC3","min":[-0.0070844003930687904,-0.008233250118792057,7.6298902058624662E-6],"max":[0.0071302102878689766,0.0088627906516194344,0.019636200740933418]},{"bufferView":61,"byteOffset":82476,"count":6107,"componentType":5126,"type":"VEC3","min":[-0.007179800420999527,-0.0086109703406691551,2.8615102110052248E-6],"max":[0.0071529201231896877,0.00464694993570447,0.014299900270998478]},{"bufferView":61,"byteOffset":155760,"count":13113,"componentType":5126,"type":"VEC3","min":[-0.0069793802686035633,-0.0080644506961107254,0.00024414100334979594],"max":[0.0070355506613850594,0.0089048100635409355,0.019997602328658104]},{"bufferView":61,"byteOffset":313116,"count":6703,"componentType":5126,"type":"VEC3","min":[-0.0071302703581750393,-0.0088893808424472809,-2.3837001208448783E-6],"max":[0.007179770153015852,0.0022094801533967257,0.01545330137014389]},{"bufferView":61,"byteOffset":393552,"count":1185,"componentType":5126,"type":"VEC3","min":[-0.0044311000965535641,-0.007443250622600317,0.00031852800748310983],"max":[0.0053583402186632156,0.00402218010276556,0.015433300286531448]},{"bufferView":61,"byteOffset":407772,"count":4423,"componentType":5126,"type":"VEC3","min":[-0.0048330700956285,-0.0089044002816081047,-2.3837001208448783E-6],"max":[0.00429162010550499,-0.0007856530137360096,0.015441901050508022]},{"bufferView":61,"byteOffset":460848,"count":1121,"componentType":5126,"type":"VEC3","min":[-0.00075596605893224478,-0.0089044002816081047,0.00023317401064559817],"max":[0.0042364303953945637,-0.0049642403610050678,0.015323600731790066]},{"bufferView":62,"byteOffset":0,"count":6873,"componentType":5126,"type":"VEC2"},{"bufferView":62,"byteOffset":54984,"count":6107,"componentType":5126,"type":"VEC2"},{"bufferView":62,"byteOffset":103840,"count":13113,"componentType":5126,"type":"VEC2"},{"bufferView":62,"byteOffset":208744,"count":6703,"componentType":5126,"type":"VEC2"},{"bufferView":62,"byteOffset":262368,"count":4423,"componentType":5126,"type":"VEC2"},{"bufferView":62,"byteOffset":297752,"count":1121,"componentType":5126,"type":"VEC2"},{"bufferView":63,"byteOffset":0,"count":1185,"componentType":5121,"type":"VEC4","normalized":true},{"bufferView":64,"byteOffset":0,"count":34452,"componentType":5125,"type":"SCALAR"},{"bufferView":64,"byteOffset":137808,"count":29850,"componentType":5125,"type":"SCALAR"},{"bufferView":64,"byteOffset":257208,"count":70698,"componentType":5125,"type":"SCALAR"},{"bufferView":64,"byteOffset":540000,"count":31221,"componentType":5125,"type":"SCALAR"},{"bufferView":64,"byteOffset":664884,"count":5427,"componentType":5125,"type":"SCALAR"},{"bufferView":64,"byteOffset":686592,"count":20988,"componentType":5125,"type":"SCALAR"},{"bufferView":64,"byteOffset":770544,"count":4494,"componentType":5125,"type":"SCALAR"}],"bufferViews":[{"buffer":0,"byteOffset":0,"byteLength":936,"byteStride":12,"target":34962},{"buffer":0,"byteOffset":936,"byteLength":624,"byteStride":8,"target":34962},{"buffer":0,"byteOffset":1560,"byteLength":840,"target":34963},{"buffer":0,"byteOffset":2400,"byteLength":2448,"byteStride":12,"target":34962},{"buffer":0,"byteOffset":4848,"byteLength":1632,"byteStride":8,"target":34962},{"buffer":0,"byteOffset":6480,"byteLength":3168,"target":34963},{"buffer":0,"byteOffset":9648,"byteLength":3876,"byteStride":12,"target":34962},{"buffer":0,"byteOffset":13524,"byteLength":2584,"byteStride":8,"target":34962},{"buffer":0,"byteOffset":16108,"byteLength":4536,"target":34963},{"buffer":0,"byteOffset":20644,"byteLength":2628,"byteStride":12,"target":34962},{"buffer":0,"byteOffset":23272,"byteLength":1752,"byteStride":8,"target":34962},{"buffer":0,"byteOffset":25024,"byteLength":3312,"target":34963},{"buffer":0,"byteOffset":28336,"byteLength":2112,"byteStride":12,"target":34962},{"buffer":0,"byteOffset":30448,"byteLength":1408,"byteStride":8,"target":34962},{"buffer":0,"byteOffset":31856,"byteLength":2040,"target":34963},{"buffer":0,"byteOffset":33896,"byteLength":2424,"byteStride":12,"target":34962},{"buffer":0,"byteOffset":36320,"byteLength":1616,"byteStride":8,"target":34962},{"buffer":0,"byteOffset":37936,"byteLength":3096,"target":34963},{"buffer":0,"byteOffset":41032,"byteLength":2904,"byteStride":12,"target":34962},{"buffer":0,"byteOffset":43936,"byteLength":1936,"byteStride":8,"target":34962},{"buffer":0,"byteOffset":45872,"byteLength":3768,"target":34963},{"buffer":0,"byteOffset":49640,"byteLength":780,"byteStride":12,"target":34962},{"buffer":0,"byteOffset":50420,"byteLength":520,"byteStride":8,"target":34962},{"buffer":0,"byteOffset":50940,"byteLength":720,"target":34963},{"buffer":0,"byteOffset":51660,"byteLength":5220,"byteStride":12,"target":34962},{"buffer":0,"byteOffset":56880,"byteLength":3480,"byteStride":8,"target":34962},{"buffer":0,"byteOffset":60360,"byteLength":5400,"target":34963},{"buffer":0,"byteOffset":65760,"byteLength":2448,"byteStride":12,"target":34962},{"buffer":0,"byteOffset":68208,"byteLength":1632,"byteStride":8,"target":34962},{"buffer":0,"byteOffset":69840,"byteLength":3168,"target":34963},{"buffer":0,"byteOffset":73008,"byteLength":4296,"byteStride":12,"target":34962},{"buffer":0,"byteOffset":77304,"byteLength":2864,"byteStride":8,"target":34962},{"buffer":0,"byteOffset":80168,"byteLength":5184,"target":34963},{"buffer":0,"byteOffset":85352,"byteLength":5940,"byteStride":12,"target":34962},{"buffer":0,"byteOffset":91292,"byteLength":3960,"byteStride":8,"target":34962},{"buffer":0,"byteOffset":95252,"byteLength":6384,"target":34963},{"buffer":0,"byteOffset":101636,"byteLength":1068,"byteStride":12,"target":34962},{"buffer":0,"byteOffset":102704,"byteLength":712,"byteStride":8,"target":34962},{"buffer":0,"byteOffset":103416,"byteLength":984,"target":34963},{"buffer":0,"byteOffset":104400,"byteLength":900,"byteStride":12,"target":34962},{"buffer":0,"byteOffset":105300,"byteLength":600,"byteStride":8,"target":34962},{"buffer":0,"byteOffset":105900,"byteLength":864,"target":34963},{"buffer":0,"byteOffset":106764,"byteLength":2880,"byteStride":12,"target":34962},{"buffer":0,"byteOffset":109644,"byteLength":1920,"byteStride":8,"target":34962},{"buffer":0,"byteOffset":111564,"byteLength":3768,"target":34963},{"buffer":0,"byteOffset":115332,"byteLength":2388,"byteStride":12,"target":34962},{"buffer":0,"byteOffset":117720,"byteLength":1592,"byteStride":8,"target":34962},{"buffer":0,"byteOffset":119312,"byteLength":3096,"target":34963},{"buffer":0,"byteOffset":122408,"byteLength":2076,"byteStride":12,"target":34962},{"buffer":0,"byteOffset":124484,"byteLength":1384,"byteStride":8,"target":34962},{"buffer":0,"byteOffset":125868,"byteLength":2040,"target":34963},{"buffer":0,"byteOffset":127908,"byteLength":2628,"byteStride":12,"target":34962},{"buffer":0,"byteOffset":130536,"byteLength":1752,"byteStride":8,"target":34962},{"buffer":0,"byteOffset":132288,"byteLength":3312,"target":34963},{"buffer":0,"byteOffset":135600,"byteLength":4980,"byteStride":12,"target":34962},{"buffer":0,"byteOffset":140580,"byteLength":2888,"byteStride":8,"target":34962},{"buffer":0,"byteOffset":143468,"byteLength":216,"byteStride":4,"target":34962},{"buffer":0,"byteOffset":143684,"byteLength":5328,"target":34963},{"buffer":0,"byteOffset":149012,"byteLength":2568,"byteStride":12,"target":34962},{"buffer":0,"byteOffset":151580,"byteLength":1712,"byteStride":8,"target":34962},{"buffer":0,"byteOffset":153292,"byteLength":2616,"target":34963},{"buffer":0,"byteOffset":155908,"byteLength":474300,"byteStride":12,"target":34962},{"buffer":0,"byteOffset":630208,"byteLength":306720,"byteStride":8,"target":34962},{"buffer":0,"byteOffset":936928,"byteLength":4740,"byteStride":4,"target":34962},{"buffer":0,"byteOffset":941668,"byteLength":788520,"target":34963}],"buffers":[{"byteLength":1730188,"uri":"ManFlexing.bin"}]}