{"asset":{"generator":"3D Builder","version":"2.0"},"scene":0,"scenes":[{"nodes":[0,3]}],"nodes":[{"children":[1,2]},{"mesh":0,"matrix":[39.370079040527344,0,0,0,0,-4.6932791519793682E-6,-39.370075225830078,0,0,39.370075225830078,-4.6932791519793682E-6,0,0,0.0021412407513707876,-2.4478579163655922E-8,1]},{"mesh":1,"matrix":[39.370079040527344,0,0,0,0,-4.6932791519793682E-6,-39.370075225830078,0,0,39.370075225830078,-4.6932791519793682E-6,0,0,0.0021412407513707876,-2.4478579163655922E-8,1]},{"children":[4,5,6,7,8]},{"mesh":2,"matrix":[39.370079040527344,0,0,0,0,-4.6932791519793682E-6,-39.370075225830078,0,0,39.370075225830078,-4.6932791519793682E-6,0,0,0.0021412407513707876,-2.4478579163655922E-8,1]},{"mesh":3,"matrix":[39.370079040527344,0,0,0,0,-4.6932791519793682E-6,-39.370075225830078,0,0,39.370075225830078,-4.6932791519793682E-6,0,0,0.0021412407513707876,-2.4478579163655922E-8,1]},{"mesh":4,"matrix":[39.370079040527344,0,0,0,0,-4.6932791519793682E-6,-39.370075225830078,0,0,39.370075225830078,-4.6932791519793682E-6,0,0,0.0021412407513707876,-2.4478579163655922E-8,1]},{"mesh":5,"matrix":[39.370079040527344,0,0,0,0,-4.6932791519793682E-6,-39.370075225830078,0,0,39.370075225830078,-4.6932791519793682E-6,0,0,0.0021412407513707876,-2.4478579163655922E-8,1]},{"mesh":6,"matrix":[39.370079040527344,0,0,0,0,-4.6932791519793682E-6,-39.370075225830078,0,0,39.370075225830078,-4.6932791519793682E-6,0,0,0.0021412407513707876,-2.4478579163655922E-8,1]}],"meshes":[{"primitives":[{"attributes":{"POSITION":0,"TEXCOORD_0":1},"mode":4,"indices":2,"material":0}]},{"primitives":[{"attributes":{"POSITION":3,"TEXCOORD_0":4},"mode":4,"indices":5,"material":0}]},{"primitives":[{"attributes":{"POSITION":6,"TEXCOORD_0":7},"mode":4,"indices":8,"material":1}]},{"primitives":[{"attributes":{"POSITION":9,"TEXCOORD_0":10},"mode":4,"indices":11,"material":1}]},{"primitives":[{"attributes":{"POSITION":12,"TEXCOORD_0":13},"mode":4,"indices":14,"material":1}]},{"primitives":[{"attributes":{"POSITION":15,"TEXCOORD_0":16},"mode":4,"indices":17,"material":1}]},{"primitives":[{"attributes":{"POSITION":18,"TEXCOORD_0":19},"mode":4,"indices":20,"material":1}]}],"materials":[{"pbrMetallicRoughness":{"baseColorFactor":[1,1,1,1],"metallicFactor":1,"roughnessFactor":1,"baseColorTexture":{"index":0,"texCoord":0},"metallicRoughnessTexture":{"index":1,"texCoord":0}},"alphaMode":"OPAQUE"},{"pbrMetallicRoughness":{"baseColorFactor":[1,1,1,1],"metallicFactor":1,"roughnessFactor":1,"baseColorTexture":{"index":2,"texCoord":0},"metallicRoughnessTexture":{"index":3,"texCoord":0}},"alphaMode":"OPAQUE"}],"textures":[{"source":0,"sampler":0},{"source":1,"sampler":0},{"source":2,"sampler":0},{"source":3,"sampler":0}],"images":[{"uri":"2161045691_2048x2048_6195987693227547908.png"},{"uri":"1378158819_2048x2048_17319628118832143767.png"},{"uri":"4115358140_512x512_11563080508590297124.png"},{"uri":"3332471268_512x512_12154559721164250551.png"}],"samplers":[{"magFilter":9729,"wrapS":10497,"wrapT":10497}],"accessors":[{"bufferView":0,"byteOffset":0,"count":14968,"componentType":5126,"type":"VEC3","min":[-0.0043596737086772919,-0.0066316844895482063,-5.4387521231547E-5],"max":[0.0043541816994547844,0.0069777816534042358,0.013661142438650131]},{"bufferView":1,"byteOffset":0,"count":14968,"componentType":5126,"type":"VEC2"},{"bufferView":2,"byteOffset":0,"count":55014,"componentType":5125,"type":"SCALAR"},{"bufferView":3,"byteOffset":0,"count":287,"componentType":5126,"type":"VEC3","min":[-0.000731226580683142,-0.0069777830503880978,0.0076267560943961143],"max":[0.00070898805279284716,-0.0061851069331169128,0.00885484553873539]},{"bufferView":4,"byteOffset":0,"count":287,"componentType":5126,"type":"VEC2"},{"bufferView":5,"byteOffset":0,"count":708,"componentType":5125,"type":"SCALAR"},{"bufferView":6,"byteOffset":0,"count":113,"componentType":5126,"type":"VEC3","min":[-0.0029245088808238506,-0.0035055105108767748,0.0034284323919564486],"max":[-0.0017782974755391479,-0.0034248386509716511,0.004443551879376173]},{"bufferView":7,"byteOffset":0,"count":113,"componentType":5126,"type":"VEC2"},{"bufferView":8,"byteOffset":0,"count":270,"componentType":5125,"type":"SCALAR"},{"bufferView":9,"byteOffset":0,"count":2377,"componentType":5126,"type":"VEC3","min":[0.0034922566264867783,0.00024236460740212351,0.0037107835523784161],"max":[0.0037578011397272348,0.0021986542269587517,0.0055090910755097866]},{"bufferView":10,"byteOffset":0,"count":2377,"componentType":5126,"type":"VEC2"},{"bufferView":11,"byteOffset":0,"count":7902,"componentType":5125,"type":"SCALAR"},{"bufferView":12,"byteOffset":0,"count":2372,"componentType":5126,"type":"VEC3","min":[-0.0037581168580800295,0.00024236460740212351,0.0037107835523784161],"max":[-0.0034959337208420038,0.0021986542269587517,0.0055090910755097866]},{"bufferView":13,"byteOffset":0,"count":2372,"componentType":5126,"type":"VEC2"},{"bufferView":14,"byteOffset":0,"count":7842,"componentType":5125,"type":"SCALAR"},{"bufferView":15,"byteOffset":0,"count":164,"componentType":5126,"type":"VEC3","min":[-0.00013797190331388265,-0.0049844924360513687,0.00549564603716135],"max":[7.3791445174720138E-5,-0.0047828131355345249,0.0058553074486553669]},{"bufferView":16,"byteOffset":0,"count":164,"componentType":5126,"type":"VEC2"},{"bufferView":17,"byteOffset":0,"count":624,"componentType":5125,"type":"SCALAR"},{"bufferView":18,"byteOffset":0,"count":430,"componentType":5126,"type":"VEC3","min":[-0.00056149862939491868,-0.0054113804362714291,0.005616653710603714],"max":[0.00049731775652617216,-0.0043525639921426773,0.0066082431003451347]},{"bufferView":19,"byteOffset":0,"count":430,"componentType":5126,"type":"VEC2"},{"bufferView":20,"byteOffset":0,"count":1434,"componentType":5125,"type":"SCALAR"}],"bufferViews":[{"buffer":0,"byteOffset":0,"byteLength":179616,"byteStride":12,"target":34962},{"buffer":0,"byteOffset":179616,"byteLength":119744,"byteStride":8,"target":34962},{"buffer":0,"byteOffset":299360,"byteLength":220056,"target":34963},{"buffer":0,"byteOffset":519416,"byteLength":3444,"byteStride":12,"target":34962},{"buffer":0,"byteOffset":522860,"byteLength":2296,"byteStride":8,"target":34962},{"buffer":0,"byteOffset":525156,"byteLength":2832,"target":34963},{"buffer":0,"byteOffset":527988,"byteLength":1356,"byteStride":12,"target":34962},{"buffer":0,"byteOffset":529344,"byteLength":904,"byteStride":8,"target":34962},{"buffer":0,"byteOffset":530248,"byteLength":1080,"target":34963},{"buffer":0,"byteOffset":531328,"byteLength":28524,"byteStride":12,"target":34962},{"buffer":0,"byteOffset":559852,"byteLength":19016,"byteStride":8,"target":34962},{"buffer":0,"byteOffset":578868,"byteLength":31608,"target":34963},{"buffer":0,"byteOffset":610476,"byteLength":28464,"byteStride":12,"target":34962},{"buffer":0,"byteOffset":638940,"byteLength":18976,"byteStride":8,"target":34962},{"buffer":0,"byteOffset":657916,"byteLength":31368,"target":34963},{"buffer":0,"byteOffset":689284,"byteLength":1968,"byteStride":12,"target":34962},{"buffer":0,"byteOffset":691252,"byteLength":1312,"byteStride":8,"target":34962},{"buffer":0,"byteOffset":692564,"byteLength":2496,"target":34963},{"buffer":0,"byteOffset":695060,"byteLength":5160,"byteStride":12,"target":34962},{"buffer":0,"byteOffset":700220,"byteLength":3440,"byteStride":8,"target":34962},{"buffer":0,"byteOffset":703660,"byteLength":5736,"target":34963}],"buffers":[{"byteLength":709396,"uri":"Cabin.bin"}]}