{"asset":{"generator":"3D Builder","version":"2.0"},"scene":0,"scenes":[{"nodes":[0,1,2,3,4,5]}],"nodes":[{"mesh":0,"matrix":[1,0,0,0,0,-1.1920928955078125E-7,-0.99999988079071045,0,0,0.99999988079071045,-1.1920928955078125E-7,0,1.0658263818186242E-6,-0.021658137440681458,-3.3402368444512831E-6,1]},{"mesh":1,"matrix":[1,0,0,0,0,-1.1920928955078125E-7,-0.99999988079071045,0,0,0.99999988079071045,-1.1920928955078125E-7,0,1.0658263818186242E-6,-0.021658137440681458,-3.3402368444512831E-6,1]},{"mesh":2,"matrix":[1,0,0,0,0,-1.1920928955078125E-7,-0.99999988079071045,0,0,0.99999988079071045,-1.1920928955078125E-7,0,1.0658263818186242E-6,-0.021658137440681458,-3.3402368444512831E-6,1]},{"mesh":3,"matrix":[1,0,0,0,0,-1.1920928955078125E-7,-0.99999988079071045,0,0,0.99999988079071045,-1.1920928955078125E-7,0,1.0658263818186242E-6,-0.021658137440681458,-3.3402368444512831E-6,1]},{"mesh":4,"matrix":[1,0,0,0,0,-1.1920928955078125E-7,-0.99999988079071045,0,0,0.99999988079071045,-1.1920928955078125E-7,0,1.0658263818186242E-6,-0.021658137440681458,-3.3402368444512831E-6,1]},{"mesh":5,"matrix":[1,0,0,0,0,-1.1920928955078125E-7,-0.99999988079071045,0,0,0.99999988079071045,-1.1920928955078125E-7,0,1.0658263818186242E-6,-0.021658137440681458,-3.3402368444512831E-6,1]}],"meshes":[{"primitives":[{"attributes":{"POSITION":0,"TEXCOORD_0":2},"mode":4,"indices":4,"material":0},{"attributes":{"POSITION":1,"TEXCOORD_0":3},"mode":4,"indices":5,"material":0}]},{"primitives":[{"attributes":{"POSITION":6,"TEXCOORD_0":11},"mode":4,"indices":16,"material":0},{"attributes":{"POSITION":7,"TEXCOORD_0":12},"mode":4,"indices":17,"material":0},{"attributes":{"POSITION":8,"TEXCOORD_0":13},"mode":4,"indices":18,"material":1},{"attributes":{"POSITION":9,"TEXCOORD_0":14},"mode":4,"indices":19,"material":1},{"attributes":{"POSITION":10,"TEXCOORD_0":15},"mode":4,"indices":20,"material":1}]},{"primitives":[{"attributes":{"POSITION":21},"mode":4,"indices":22,"material":2}]},{"primitives":[{"attributes":{"POSITION":23,"TEXCOORD_0":28},"mode":4,"indices":33,"material":0},{"attributes":{"POSITION":24,"TEXCOORD_0":29},"mode":4,"indices":34,"material":0},{"attributes":{"POSITION":25,"TEXCOORD_0":30},"mode":4,"indices":35,"material":1},{"attributes":{"POSITION":26,"TEXCOORD_0":31},"mode":4,"indices":36,"material":1},{"attributes":{"POSITION":27,"TEXCOORD_0":32},"mode":4,"indices":37,"material":1}]},{"primitives":[{"attributes":{"POSITION":38,"TEXCOORD_0":43},"mode":4,"indices":48,"material":0},{"attributes":{"POSITION":39,"TEXCOORD_0":44},"mode":4,"indices":49,"material":0},{"attributes":{"POSITION":40,"TEXCOORD_0":45},"mode":4,"indices":50,"material":1},{"attributes":{"POSITION":41,"TEXCOORD_0":46},"mode":4,"indices":51,"material":1},{"attributes":{"POSITION":42,"TEXCOORD_0":47},"mode":4,"indices":52,"material":1}]},{"primitives":[{"attributes":{"POSITION":53},"mode":4,"indices":61,"material":2},{"attributes":{"POSITION":54},"mode":4,"indices":62,"material":2},{"attributes":{"POSITION":55,"TEXCOORD_0":58},"mode":4,"indices":63,"material":1},{"attributes":{"POSITION":56,"TEXCOORD_0":59},"mode":4,"indices":64,"material":1},{"attributes":{"POSITION":57,"TEXCOORD_0":60},"mode":4,"indices":65,"material":1}]}],"materials":[{"pbrMetallicRoughness":{"baseColorFactor":[1,1,1,1],"metallicFactor":0,"roughnessFactor":1,"baseColorTexture":{"index":0,"texCoord":0}},"alphaMode":"OPAQUE"},{"pbrMetallicRoughness":{"baseColorFactor":[1,1,1,1],"metallicFactor":0,"roughnessFactor":1,"baseColorTexture":{"index":1,"texCoord":0}},"alphaMode":"OPAQUE"},{"name":"Turquoise","pbrMetallicRoughness":{"baseColorFactor":[0,0.3515326976776123,0.80695247650146484,1],"metallicFactor":0,"roughnessFactor":1},"alphaMode":"OPAQUE"}],"textures":[{"source":0,"sampler":0},{"source":1,"sampler":0}],"images":[{"uri":"sttionry.jpg"},{"uri":"sand.jpg"}],"samplers":[{"magFilter":9729,"wrapS":10497,"wrapT":10497}],"accessors":[{"bufferView":0,"byteOffset":0,"count":96,"componentType":5126,"type":"VEC3","min":[-1.0037198066711426,-1.0037033557891846,2.08650541305542],"max":[1.0037176609039307,1.0036966800689697,2.0865089893341064]},{"bufferView":0,"byteOffset":1152,"count":97,"componentType":5126,"type":"VEC3","min":[-1.0037198066711426,-1.0037033557891846,0.079091787338256836],"max":[1.0037176609039307,1.0036966800689697,2.0865089893341064]},{"bufferView":1,"byteOffset":0,"count":96,"componentType":5126,"type":"VEC2"},{"bufferView":1,"byteOffset":768,"count":97,"componentType":5126,"type":"VEC2"},{"bufferView":2,"byteOffset":0,"count":282,"componentType":5125,"type":"SCALAR"},{"bufferView":2,"byteOffset":1128,"count":288,"componentType":5125,"type":"SCALAR"},{"bufferView":3,"byteOffset":0,"count":22,"componentType":5126,"type":"VEC3","min":[0.792443037033081,-0.43923139572143555,1.5828771591186523],"max":[0.8464961051940918,-0.047924160957336426,1.6866188049316406]},{"bufferView":3,"byteOffset":264,"count":40,"componentType":5126,"type":"VEC3","min":[0.35120934247970581,-0.047924160957336426,1.5858274698257446],"max":[0.83022856712341309,0.50139367580413818,1.7666406631469727]},{"bufferView":3,"byteOffset":744,"count":120,"componentType":5126,"type":"VEC3","min":[-0.64242947101593018,-0.962293267250061,1.6800105571746826],"max":[0.8464961051940918,0.55167168378829956,1.9500415325164795]},{"bufferView":3,"byteOffset":2184,"count":184,"componentType":5126,"type":"VEC3","min":[-0.6600455641746521,-0.962293267250061,1.5894854068756104],"max":[0.810059130191803,0.55167168378829956,1.9500415325164795]},{"bufferView":3,"byteOffset":4392,"count":120,"componentType":5126,"type":"VEC3","min":[-0.6600455641746521,-0.962293267250061,1.5828771591186523],"max":[0.82888001203536987,0.55167168378829956,1.8529081344604492]},{"bufferView":4,"byteOffset":0,"count":22,"componentType":5126,"type":"VEC2"},{"bufferView":4,"byteOffset":176,"count":40,"componentType":5126,"type":"VEC2"},{"bufferView":4,"byteOffset":496,"count":120,"componentType":5126,"type":"VEC2"},{"bufferView":4,"byteOffset":1456,"count":184,"componentType":5126,"type":"VEC2"},{"bufferView":4,"byteOffset":2928,"count":120,"componentType":5126,"type":"VEC2"},{"bufferView":5,"byteOffset":0,"count":60,"componentType":5125,"type":"SCALAR"},{"bufferView":5,"byteOffset":240,"count":114,"componentType":5125,"type":"SCALAR"},{"bufferView":5,"byteOffset":696,"count":354,"componentType":5125,"type":"SCALAR"},{"bufferView":5,"byteOffset":2112,"count":546,"componentType":5125,"type":"SCALAR"},{"bufferView":5,"byteOffset":4296,"count":354,"componentType":5125,"type":"SCALAR"},{"bufferView":6,"byteOffset":0,"count":240,"componentType":5126,"type":"VEC3","min":[-0.011178546585142612,-0.00920354388654232,0.021658139303326607],"max":[0.007902911864221096,0.009978841058909893,0.0270587969571352]},{"bufferView":7,"byteOffset":0,"count":1428,"componentType":5125,"type":"SCALAR"},{"bufferView":8,"byteOffset":0,"count":16,"componentType":5126,"type":"VEC3","min":[0.24959279596805573,0.56226634979248047,1.6042941808700562],"max":[0.50211697816848755,0.70634996891021729,1.7597055435180664]},{"bufferView":8,"byteOffset":192,"count":46,"componentType":5126,"type":"VEC3","min":[0.4769437313079834,-0.23380374908447266,1.664251446723938],"max":[0.74417811632156372,0.56226634979248047,1.8235422372817993]},{"bufferView":8,"byteOffset":744,"count":184,"componentType":5126,"type":"VEC3","min":[-0.74417853355407715,-0.756603479385376,1.34221613407135],"max":[0.70837104320526123,0.7566027045249939,1.8140991926193237]},{"bufferView":8,"byteOffset":2952,"count":120,"componentType":5126,"type":"VEC3","min":[-0.74417853355407715,-0.756603479385376,1.4376702308654785],"max":[0.71900486946105957,0.7566027045249939,1.8235422372817993]},{"bufferView":8,"byteOffset":4392,"count":120,"componentType":5126,"type":"VEC3","min":[-0.71900534629821777,-0.756603479385376,1.34221613407135],"max":[0.74417811632156372,0.7566027045249939,1.7280881404876709]},{"bufferView":9,"byteOffset":0,"count":16,"componentType":5126,"type":"VEC2"},{"bufferView":9,"byteOffset":128,"count":46,"componentType":5126,"type":"VEC2"},{"bufferView":9,"byteOffset":496,"count":184,"componentType":5126,"type":"VEC2"},{"bufferView":9,"byteOffset":1968,"count":120,"componentType":5126,"type":"VEC2"},{"bufferView":9,"byteOffset":2928,"count":120,"componentType":5126,"type":"VEC2"},{"bufferView":10,"byteOffset":0,"count":42,"componentType":5125,"type":"SCALAR"},{"bufferView":10,"byteOffset":168,"count":132,"componentType":5125,"type":"SCALAR"},{"bufferView":10,"byteOffset":696,"count":546,"componentType":5125,"type":"SCALAR"},{"bufferView":10,"byteOffset":2880,"count":354,"componentType":5125,"type":"SCALAR"},{"bufferView":10,"byteOffset":4296,"count":354,"componentType":5125,"type":"SCALAR"},{"bufferView":11,"byteOffset":0,"count":26,"componentType":5126,"type":"VEC3","min":[0.50129663944244385,0.16892802715301514,1.8716309070587158],"max":[0.80586004257202148,0.55184197425842285,2.0941855907440186]},{"bufferView":11,"byteOffset":312,"count":36,"componentType":5126,"type":"VEC3","min":[0.70668876171112061,-0.4909893274307251,1.9971920251846313],"max":[0.84649628400802612,0.18258368968963623,2.1679730415344238]},{"bufferView":11,"byteOffset":744,"count":184,"componentType":5126,"type":"VEC3","min":[-0.68031561374664307,-0.87539184093475342,1.6265106201171875],"max":[0.73226791620254517,0.67587178945541382,2.1676867008209229]},{"bufferView":11,"byteOffset":2952,"count":120,"componentType":5126,"type":"VEC3","min":[-0.68031561374664307,-0.86173641681671143,1.7235041856765747],"max":[0.82091712951660156,0.67587178945541382,2.1679730415344238]},{"bufferView":11,"byteOffset":4392,"count":120,"componentType":5126,"type":"VEC3","min":[-0.65473645925521851,-0.87539184093475342,1.6265106201171875],"max":[0.84649628400802612,0.6622161865234375,2.0709798336029053]},{"bufferView":12,"byteOffset":0,"count":26,"componentType":5126,"type":"VEC2"},{"bufferView":12,"byteOffset":208,"count":36,"componentType":5126,"type":"VEC2"},{"bufferView":12,"byteOffset":496,"count":184,"componentType":5126,"type":"VEC2"},{"bufferView":12,"byteOffset":1968,"count":120,"componentType":5126,"type":"VEC2"},{"bufferView":12,"byteOffset":2928,"count":120,"componentType":5126,"type":"VEC2"},{"bufferView":13,"byteOffset":0,"count":72,"componentType":5125,"type":"SCALAR"},{"bufferView":13,"byteOffset":288,"count":102,"componentType":5125,"type":"SCALAR"},{"bufferView":13,"byteOffset":696,"count":546,"componentType":5125,"type":"SCALAR"},{"bufferView":13,"byteOffset":2880,"count":354,"componentType":5125,"type":"SCALAR"},{"bufferView":13,"byteOffset":4296,"count":354,"componentType":5125,"type":"SCALAR"},{"bufferView":14,"byteOffset":0,"count":3,"componentType":5126,"type":"VEC3","min":[-0.130413219332695,0.15857794880867004,0.8685949444770813],"max":[-0.12505713105201721,0.1610465794801712,0.86956626176834106]},{"bufferView":14,"byteOffset":36,"count":8,"componentType":5126,"type":"VEC3","min":[-0.32020601630210876,0.25114911794662476,0.88558024168014526],"max":[-0.21773600578308105,0.30027830600738525,0.90483963489532471]},{"bufferView":14,"byteOffset":132,"count":683,"componentType":5126,"type":"VEC3","min":[-0.51191961765289307,-0.53226882219314575,0.71911215782165527],"max":[0.408632755279541,0.467373251914978,1.1524718999862671]},{"bufferView":14,"byteOffset":8328,"count":240,"componentType":5126,"type":"VEC3","min":[-0.51191961765289307,-0.53226882219314575,0.82649850845336914],"max":[0.37013700604438782,0.26803505420684814,1.0978477001190186]},{"bufferView":14,"byteOffset":11208,"count":159,"componentType":5126,"type":"VEC3","min":[-0.40863344073295593,-0.35350996255874634,0.71911215782165527],"max":[0.3990764319896698,0.467373251914978,0.86559832096099854]},{"bufferView":15,"byteOffset":0,"count":683,"componentType":5126,"type":"VEC2"},{"bufferView":15,"byteOffset":5464,"count":240,"componentType":5126,"type":"VEC2"},{"bufferView":15,"byteOffset":7384,"count":159,"componentType":5126,"type":"VEC2"},{"bufferView":16,"byteOffset":0,"count":3,"componentType":5125,"type":"SCALAR"},{"bufferView":16,"byteOffset":12,"count":12,"componentType":5125,"type":"SCALAR"},{"bufferView":16,"byteOffset":60,"count":3039,"componentType":5125,"type":"SCALAR"},{"bufferView":16,"byteOffset":12216,"count":744,"componentType":5125,"type":"SCALAR"},{"bufferView":16,"byteOffset":15192,"count":588,"componentType":5125,"type":"SCALAR"}],"bufferViews":[{"buffer":0,"byteOffset":0,"byteLength":2316,"byteStride":12,"target":34962},{"buffer":0,"byteOffset":2316,"byteLength":1544,"byteStride":8,"target":34962},{"buffer":0,"byteOffset":3860,"byteLength":2280,"target":34963},{"buffer":0,"byteOffset":6140,"byteLength":5832,"byteStride":12,"target":34962},{"buffer":0,"byteOffset":11972,"byteLength":3888,"byteStride":8,"target":34962},{"buffer":0,"byteOffset":15860,"byteLength":5712,"target":34963},{"buffer":0,"byteOffset":21572,"byteLength":2880,"byteStride":12,"target":34962},{"buffer":0,"byteOffset":24452,"byteLength":5712,"target":34963},{"buffer":0,"byteOffset":30164,"byteLength":5832,"byteStride":12,"target":34962},{"buffer":0,"byteOffset":35996,"byteLength":3888,"byteStride":8,"target":34962},{"buffer":0,"byteOffset":39884,"byteLength":5712,"target":34963},{"buffer":0,"byteOffset":45596,"byteLength":5832,"byteStride":12,"target":34962},{"buffer":0,"byteOffset":51428,"byteLength":3888,"byteStride":8,"target":34962},{"buffer":0,"byteOffset":55316,"byteLength":5712,"target":34963},{"buffer":0,"byteOffset":61028,"byteLength":13116,"byteStride":12,"target":34962},{"buffer":0,"byteOffset":74144,"byteLength":8656,"byteStride":8,"target":34962},{"buffer":0,"byteOffset":82800,"byteLength":17544,"target":34963}],"buffers":[{"byteLength":100344,"uri":"betterTORNADO.bin"}]}