{"asset":{"generator":"3D Builder","version":"2.0"},"scene":0,"scenes":[{"nodes":[0]}],"nodes":[{"mesh":0,"matrix":[1,0,0,0,0,-1.1920928955078125E-7,-0.99999988079071045,0,0,0.99999988079071045,-1.1920928955078125E-7,0,0.00015900797734502703,-1.867766385998948E-9,-0.0061003761366009712,1]}],"meshes":[{"primitives":[{"attributes":{"POSITION":0,"TEXCOORD_0":1},"mode":4,"indices":2,"material":0}]}],"materials":[{"pbrMetallicRoughness":{"baseColorFactor":[1,1,1,1],"metallicFactor":1,"roughnessFactor":1,"baseColorTexture":{"index":0,"texCoord":0},"metallicRoughnessTexture":{"index":1,"texCoord":0}},"alphaMode":"OPAQUE"}],"textures":[{"source":0,"sampler":0},{"source":1,"sampler":0}],"images":[{"uri":"material_0_diffuse_6195987693227547908.png"},{"uri":"material_0_specularGlossiness_17319628118832143767.png"}],"samplers":[{"magFilter":9729,"wrapS":10497,"wrapT":10497}],"accessors":[{"bufferView":0,"byteOffset":0,"count":57631,"componentType":5126,"type":"VEC3","min":[-0.034007098525762558,-0.027118761092424393,1.140544991784509E-9],"max":[0.03368908166885376,0.014918006025254726,0.26150169968605042]},{"bufferView":1,"byteOffset":0,"count":57631,"componentType":5126,"type":"VEC2"},{"bufferView":2,"byteOffset":0,"count":299397,"componentType":5125,"type":"SCALAR"}],"bufferViews":[{"buffer":0,"byteOffset":0,"byteLength":691572,"byteStride":12,"target":34962},{"buffer":0,"byteOffset":691572,"byteLength":461048,"byteStride":8,"target":34962},{"buffer":0,"byteOffset":1152620,"byteLength":1197588,"target":34963}],"buffers":[{"byteLength":2350208,"uri":"human.bin"}]}