{"asset":{"generator":"3D Builder","version":"2.0"},"scene":0,"scenes":[{"nodes":[0]}],"nodes":[{"mesh":0,"matrix":[1,0,0,0,0,-1.1920928955078125E-7,-0.99999988079071045,0,0,0.99999988079071045,-1.1920928955078125E-7,0,0.018318263813853264,-6.2118499233321245E-10,-0.0052108792588114738,1]}],"meshes":[{"primitives":[{"attributes":{"POSITION":0},"mode":4,"indices":2,"material":0},{"attributes":{"POSITION":1},"mode":4,"indices":3,"material":1}]}],"materials":[{"name":"Orange_1_0","pbrMetallicRoughness":{"baseColorFactor":[1,0.21223072707653046,0.018500218167901039,1],"metallicFactor":0,"roughnessFactor":0.498039186000824},"alphaMode":"OPAQUE"},{"name":"Green_1_0","pbrMetallicRoughness":{"baseColorFactor":[0.015208514407277107,0.49693304300308228,0.072271861135959625,1],"metallicFactor":0,"roughnessFactor":0.498039186000824},"alphaMode":"OPAQUE"}],"accessors":[{"bufferView":0,"byteOffset":0,"count":10640,"componentType":5126,"type":"VEC3","min":[-0.10835734009742737,-0.082142531871795654,-2.9738990611897543E-16],"max":[-0.004697184544056654,0.022584648802876472,0.099842235445976257]},{"bufferView":0,"byteOffset":127680,"count":1409,"componentType":5126,"type":"VEC3","min":[-0.071720808744430542,-0.071720778942108154,0.0179658904671669],"max":[0.071720808744430542,0.071720771491527557,0.080558329820632935]},{"bufferView":1,"byteOffset":0,"count":62025,"componentType":5125,"type":"SCALAR"},{"bufferView":1,"byteOffset":248100,"count":6627,"componentType":5125,"type":"SCALAR"}],"bufferViews":[{"buffer":0,"byteOffset":0,"byteLength":144588,"byteStride":12,"target":34962},{"buffer":0,"byteOffset":144588,"byteLength":274608,"target":34963}],"buffers":[{"byteLength":419196,"uri":"Mug.bin"}]}