{"asset":{"generator":"3D Builder","version":"2.0"},"scene":0,"scenes":[{"nodes":[0,1]}],"nodes":[{"mesh":0,"matrix":[0.99999994039535522,0,0,0,0,-1.1920928244535389E-7,-0.99999982118606567,0,0,0.99999982118606567,-1.1920928244535389E-7,0,-0.062998004257678986,7.5099473306750042E-9,0.062997996807098389,1]},{"mesh":1,"matrix":[0.99999994039535522,0,0,0,0,-1.1920928244535389E-7,-0.99999982118606567,0,0,0.99999982118606567,-1.1920928244535389E-7,0,-0.062998004257678986,7.5099473306750042E-9,0.062997996807098389,1]}],"meshes":[{"primitives":[{"attributes":{"POSITION":0},"mode":4,"indices":1,"material":0}]},{"primitives":[{"attributes":{"POSITION":2},"mode":4,"indices":11,"material":0},{"attributes":{"POSITION":3,"TEXCOORD_0":7},"mode":4,"indices":12,"material":1},{"attributes":{"POSITION":4,"TEXCOORD_0":8},"mode":4,"indices":13,"material":1},{"attributes":{"POSITION":5,"TEXCOORD_0":9},"mode":4,"indices":14,"material":1},{"attributes":{"POSITION":6,"TEXCOORD_0":10},"mode":4,"indices":15,"material":1}]}],"materials":[{"name":"Yellow","pbrMetallicRoughness":{"baseColorFactor":[0.99110221862792969,0.87962257862091064,0,1],"metallicFactor":0,"roughnessFactor":1},"alphaMode":"OPAQUE"},{"pbrMetallicRoughness":{"baseColorFactor":[1,1,1,1],"metallicFactor":0,"roughnessFactor":1,"baseColorTexture":{"index":0,"texCoord":0}},"alphaMode":"OPAQUE"}],"accessors":[{"bufferView":0,"byteOffset":0,"count":5,"componentType":5126,"type":"VEC3","min":[0.042998004704713821,0.042998004704713821,0],"max":[0.082998007535934448,0.082998007535934448,0.039998002350330353]},{"bufferView":1,"byteOffset":0,"count":18,"componentType":5125,"type":"SCALAR"},{"bufferView":2,"byteOffset":0,"count":4,"componentType":5126,"type":"VEC3","min":[0.042998004704713821,0.042998004704713821,0],"max":[0.082998007535934448,0.082998007535934448,0]},{"bufferView":2,"byteOffset":48,"count":3,"componentType":5126,"type":"VEC3","min":[0.042998004704713821,0.042998004704713821,0],"max":[0.082998007535934448,0.063000001013278961,0.039998002350330353]},{"bufferView":2,"byteOffset":84,"count":3,"componentType":5126,"type":"VEC3","min":[0.042998004704713821,0.042998004704713821,0],"max":[0.063000001013278961,0.082998007535934448,0.039998002350330353]},{"bufferView":2,"byteOffset":120,"count":3,"componentType":5126,"type":"VEC3","min":[0.042998004704713821,0.063000001013278961,0],"max":[0.082998007535934448,0.082998007535934448,0.039998002350330353]},{"bufferView":2,"byteOffset":156,"count":3,"componentType":5126,"type":"VEC3","min":[0.063000001013278961,0.042998004704713821,0],"max":[0.082998007535934448,0.082998007535934448,0.039998002350330353]},{"bufferView":3,"byteOffset":0,"count":3,"componentType":5126,"type":"VEC2"},{"bufferView":3,"byteOffset":24,"count":3,"componentType":5126,"type":"VEC2"},{"bufferView":3,"byteOffset":48,"count":3,"componentType":5126,"type":"VEC2"},{"bufferView":3,"byteOffset":72,"count":3,"componentType":5126,"type":"VEC2"},{"bufferView":4,"byteOffset":0,"count":6,"componentType":5125,"type":"SCALAR"},{"bufferView":4,"byteOffset":24,"count":3,"componentType":5125,"type":"SCALAR"},{"bufferView":4,"byteOffset":36,"count":3,"componentType":5125,"type":"SCALAR"},{"bufferView":4,"byteOffset":48,"count":3,"componentType":5125,"type":"SCALAR"},{"bufferView":4,"byteOffset":60,"count":3,"componentType":5125,"type":"SCALAR"}],"textures":[{"source":0,"sampler":0}],"images":[{"uri":"sand.jpg"}],"samplers":[{"magFilter":9729,"wrapS":10497,"wrapT":10497}],"bufferViews":[{"buffer":0,"byteOffset":0,"byteLength":60,"byteStride":12,"target":34962},{"buffer":0,"byteOffset":60,"byteLength":72,"target":34963},{"buffer":0,"byteOffset":132,"byteLength":192,"byteStride":12,"target":34962},{"buffer":0,"byteOffset":324,"byteLength":96,"byteStride":8,"target":34962},{"buffer":0,"byteOffset":420,"byteLength":72,"target":34963}],"buffers":[{"byteLength":492,"uri":"piramida.bin"}]}