{
	"asset":{
		"generator":"Khronos glTF Blender I/O v3.6.28",
		"version":"2.0"
	},
	"scene":0,
	"scenes":[
		{
			"extras":{
				"b_settings":0,
				"b_vr_controllers":0,
				"s_cubemap_path":"/env/",
				"b_renderer":1,
				"b_player":1,
				"b_interactive":1,
				"b_export":1,
				"export_path":"C:\\Users\\Usuario\\Desktop\\Escuela\\imagenes-expo\\",
				"s_output":"exporting...",
				"b_colorManagement":1,
				"b_physicallyCorrectLights":1,
				"b_aa":1,
				"s_project_name":"aframe-prj2",
				"b_export_single_model":0
			},
			"name":"Scene",
			"nodes":[
				0
			]
		}
	],
	"nodes":[
		{
			"mesh":0,
			"name":"BezierCurve.005",
			"rotation":[
				0,
				0.7071068286895752,
				0,
				0.7071068286895752
			]
		}
	],
	"materials":[
		{
			"doubleSided":true,
			"emissiveFactor":[
				1,
				0.2865283191204071,
				0.033347733318805695
			],
			"name":"cables.004",
			"pbrMetallicRoughness":{
				"baseColorFactor":[
					0,
					0,
					0,
					1
				]
			}
		}
	],
	"meshes":[
		{
			"name":"BezierCurve.005",
			"primitives":[
				{
					"attributes":{
						"POSITION":0,
						"NORMAL":1,
						"TEXCOORD_0":2,
						"TANGENT":3
					},
					"indices":4,
					"material":0
				}
			]
		}
	],
	"accessors":[
		{
			"bufferView":0,
			"componentType":5126,
			"count":26,
			"max":[
				3.5585765838623047,
				0.04999999329447746,
				3.1928091049194336
			],
			"min":[
				-3.5585765838623047,
				-0.04999999701976776,
				-3.1928091049194336
			],
			"type":"VEC3"
		},
		{
			"bufferView":1,
			"componentType":5126,
			"count":26,
			"type":"VEC3"
		},
		{
			"bufferView":2,
			"componentType":5126,
			"count":26,
			"type":"VEC2"
		},
		{
			"bufferView":3,
			"componentType":5126,
			"count":26,
			"type":"VEC4"
		},
		{
			"bufferView":4,
			"componentType":5123,
			"count":72,
			"type":"SCALAR"
		}
	],
	"bufferViews":[
		{
			"buffer":0,
			"byteLength":312,
			"byteOffset":0,
			"target":34962
		},
		{
			"buffer":0,
			"byteLength":312,
			"byteOffset":312,
			"target":34962
		},
		{
			"buffer":0,
			"byteLength":208,
			"byteOffset":624,
			"target":34962
		},
		{
			"buffer":0,
			"byteLength":416,
			"byteOffset":832,
			"target":34962
		},
		{
			"buffer":0,
			"byteLength":144,
			"byteOffset":1248,
			"target":34963
		}
	],
	"buffers":[
		{
			"byteLength":1392,
			"uri":"data:application/octet-stream;base64,"
		}
	]
}
