{
	"asset":{
		"generator":"Khronos glTF Blender I/O v3.6.28",
		"version":"2.0"
	},
	"scene":0,
	"scenes":[
		{
			"extras":{
				"b_settings":0,
				"b_vr_controllers":0,
				"s_cubemap_path":"/env/",
				"b_renderer":1,
				"b_player":1,
				"b_interactive":1,
				"b_export":1,
				"export_path":"C:\\Users\\Usuario\\Desktop\\Escuela\\imagenes-expo\\",
				"s_output":"exporting...",
				"b_colorManagement":1,
				"b_physicallyCorrectLights":1,
				"b_aa":1,
				"s_project_name":"aframe-prj2",
				"b_export_single_model":0
			},
			"name":"Scene",
			"nodes":[
				0
			]
		}
	],
	"nodes":[
		{
			"mesh":0,
			"name":"BezierCurve.002",
			"rotation":[
				0,
				0.7071068286895752,
				0,
				0.7071068286895752
			]
		}
	],
	"materials":[
		{
			"doubleSided":true,
			"emissiveFactor":[
				1,
				0.2865283191204071,
				0.033347733318805695
			],
			"name":"cables.001",
			"pbrMetallicRoughness":{
				"baseColorFactor":[
					0,
					0,
					0,
					1
				]
			}
		}
	],
	"meshes":[
		{
			"name":"BezierCurve.002",
			"primitives":[
				{
					"attributes":{
						"POSITION":0,
						"NORMAL":1,
						"TEXCOORD_0":2,
						"TANGENT":3
					},
					"indices":4,
					"material":0
				}
			]
		}
	],
	"accessors":[
		{
			"bufferView":0,
			"componentType":5126,
			"count":169,
			"max":[
				17.334564208984375,
				0.05000000074505806,
				0.050000738352537155
			],
			"min":[
				-9.525755882263184,
				-0.05000000074505806,
				-0.0500003807246685
			],
			"type":"VEC3"
		},
		{
			"bufferView":1,
			"componentType":5126,
			"count":169,
			"type":"VEC3"
		},
		{
			"bufferView":2,
			"componentType":5126,
			"count":169,
			"type":"VEC2"
		},
		{
			"bufferView":3,
			"componentType":5126,
			"count":169,
			"type":"VEC4"
		},
		{
			"bufferView":4,
			"componentType":5123,
			"count":864,
			"type":"SCALAR"
		}
	],
	"bufferViews":[
		{
			"buffer":0,
			"byteLength":2028,
			"byteOffset":0,
			"target":34962
		},
		{
			"buffer":0,
			"byteLength":2028,
			"byteOffset":2028,
			"target":34962
		},
		{
			"buffer":0,
			"byteLength":1352,
			"byteOffset":4056,
			"target":34962
		},
		{
			"buffer":0,
			"byteLength":2704,
			"byteOffset":5408,
			"target":34962
		},
		{
			"buffer":0,
			"byteLength":1728,
			"byteOffset":8112,
			"target":34963
		}
	],
	"buffers":[
		{
			"byteLength":9840,
			"uri":"data:application/octet-stream;base64,"
		}
	]
}
